<svg xmlns="http://www.w3.org/2000/svg" version="1.1" fill="#fff" viewBox="103.48 86.57 642.65 186.39">
    <g transform="matrix(1.3333333,0,0,-1.3333333,0,359.52932)">
        <g transform="scale(0.1)">
            <path d="m 2772.5,865.66 c -9.65,-4.828 -28.94,-9.648 -53.67,-9.648 -57.28,0 -100.39,36.179 -100.39,102.808 0,63.61 43.11,106.72 106.12,106.72 25.33,0 41.31,-5.42 48.24,-9.04 l -6.33,-21.41 c -9.95,4.83 -24.12,8.44 -41,8.44 -47.64,0 -79.3,-30.44 -79.3,-83.811 0,-49.739 28.65,-81.699 78.09,-81.699 15.98,0 32.26,3.308 42.81,8.441 l 5.43,-20.801"/>
            <path d="m 2839.11,966.961 h 26.83 c 28.04,0 45.83,15.367 45.83,38.589 0,26.23 -19,37.68 -46.74,37.98 -12.66,0 -21.7,-1.2 -25.92,-2.41 z m -26.23,92.549 c 13.26,2.72 32.25,4.22 50.34,4.22 28.05,0 46.13,-5.12 58.79,-16.58 10.26,-9.04 15.98,-22.91 15.98,-38.59 0,-26.83 -16.88,-44.619 -38.29,-51.849 v -0.91 c 15.68,-5.43 25.03,-19.903 29.85,-41 6.63,-28.34 11.46,-47.942 15.68,-55.781 h -27.13 c -3.32,5.73 -7.84,23.218 -13.57,48.539 -6.03,28.043 -16.88,38.589 -40.7,39.5 h -24.72 V 859.02 h -26.23 v 200.49"/>
            <path d="m 3087.82,954.289 h -78.99 v -73.258 h 88.03 V 859.02 H 2982.6 v 203.21 h 109.74 v -22.01 h -83.51 V 976 h 78.99 v -21.711"/>
            <path d="m 3237.94,943.441 -19.9,58.489 c -4.52,13.27 -7.53,25.32 -10.55,37.08 h -0.6 c -3.02,-12.06 -6.33,-24.42 -10.25,-36.78 l -19.9,-58.789 z m -66.63,-20.5 -21.1,-63.921 h -27.13 l 69.04,203.21 h 31.66 l 69.33,-203.21 h -28.03 l -21.71,63.921 h -72.06"/>
            <path d="m 3345.86,1039.92 h -61.8 v 22.31 h 150.44 v -22.31 h -62.1 v -180.9 h -26.54 v 180.9"/>
            <path d="m 3569.85,954.289 h -78.99 v -73.258 h 88.03 V 859.02 h -114.26 v 203.21 h 109.74 v -22.01 h -83.51 V 976 h 78.99 v -21.711"/>
            <path d="m 3723.29,859.02 v 86.23 l -64.22,116.98 h 29.85 l 28.64,-56.08 c 7.84,-15.38 13.87,-27.74 20.21,-41.912 h 0.6 c 5.72,13.274 12.66,26.532 20.49,41.912 l 29.25,56.08 h 29.85 L 3749.82,945.551 V 859.02 h -26.53"/>
            <path d="m 3853.81,959.422 c 0,-43.422 23.51,-82.313 64.81,-82.313 41.62,0 65.13,38.289 65.13,84.422 0,40.399 -21.1,82.609 -64.82,82.609 -43.42,0 -65.12,-40.1 -65.12,-84.718 z m 157.68,3.316 c 0,-69.949 -42.51,-107.027 -94.37,-107.027 -53.66,0 -91.35,41.598 -91.35,103.109 0,64.51 40.1,106.72 94.36,106.72 55.48,0 91.36,-42.51 91.36,-102.802"/>
            <path d="m 4079.31,1062.23 v -120.3 c 0,-45.52 20.19,-64.821 47.33,-64.821 30.15,0 49.44,19.903 49.44,64.821 v 120.3 h 26.53 V 943.738 c 0,-62.41 -32.86,-88.027 -76.87,-88.027 -41.61,0 -72.96,23.809 -72.96,86.828 v 119.691 h 26.53"/>
            <path d="m 4281.88,966.961 h 26.83 c 28.05,0 45.83,15.367 45.83,38.589 0,26.23 -18.99,37.68 -46.73,37.98 -12.66,0 -21.71,-1.2 -25.93,-2.41 z m -26.22,92.549 c 13.26,2.72 32.25,4.22 50.34,4.22 28.04,0 46.13,-5.12 58.79,-16.58 10.25,-9.04 15.98,-22.91 15.98,-38.59 0,-26.83 -16.89,-44.619 -38.29,-51.849 v -0.91 c 15.68,-5.43 25.03,-19.903 29.85,-41 6.63,-28.34 11.45,-47.942 15.67,-55.781 h -27.13 c -3.32,5.73 -7.84,23.218 -13.57,48.539 -6.02,28.043 -16.87,38.589 -40.7,39.5 h -24.72 V 859.02 h -26.22 v 200.49"/>
            <path d="m 4638.82,865.66 c -9.65,-4.828 -28.95,-9.648 -53.67,-9.648 -57.28,0 -100.39,36.179 -100.39,102.808 0,63.61 43.11,106.72 106.13,106.72 25.31,0 41.3,-5.42 48.23,-9.04 l -6.33,-21.41 c -9.96,4.83 -24.12,8.44 -41,8.44 -47.64,0 -79.3,-30.44 -79.3,-83.811 0,-49.739 28.64,-81.699 78.09,-81.699 15.98,0 32.25,3.308 42.81,8.441 l 5.43,-20.801"/>
            <path d="m 4679.2,1062.23 h 26.23 V 881.031 h 86.82 V 859.02 H 4679.2 v 203.21"/>
            <path d="M 4855.25,1062.23 V 859.02 h -26.23 v 203.21 h 26.23"/>
            <path d="m 5079.86,948.262 c -1.51,28.347 -3.32,62.408 -3.02,87.738 h -0.9 c -6.94,-23.82 -15.38,-49.148 -25.63,-77.18 l -35.88,-98.59 h -19.9 l -32.86,96.782 c -9.65,28.636 -17.79,54.868 -23.52,78.988 h -0.6 c -0.6,-25.33 -2.11,-59.391 -3.92,-89.852 l -5.42,-87.128 h -25.03 l 14.17,203.21 h 33.46 l 34.68,-98.289 c 8.43,-25.019 15.38,-47.332 20.5,-68.441 h 0.91 c 5.12,20.5 12.35,42.82 21.4,68.441 l 36.17,98.289 h 33.47 l 12.67,-203.21 h -25.63 l -5.12,89.242"/>
            <path d="m 5254.99,943.441 -19.9,58.489 c -4.52,13.27 -7.54,25.32 -10.55,37.08 h -0.6 c -3.02,-12.06 -6.34,-24.42 -10.26,-36.78 l -19.89,-58.789 z m -66.63,-20.5 -21.11,-63.921 h -27.13 l 69.04,203.21 h 31.65 l 69.35,-203.21 h -28.04 l -21.7,63.921 h -72.06"/>
            <path d="m 5362.91,1039.92 h -61.8 v 22.31 h 150.44 v -22.31 h -62.11 v -180.9 h -26.53 v 180.9"/>
            <path d="m 5586.9,954.289 h -78.99 v -73.258 h 88.04 V 859.02 h -114.26 v 203.21 h 109.74 v -22.01 h -83.52 V 976 h 78.99 v -21.711"/>
            <path d="m 2863.01,1598.74 -32.89,103.01 c -8.06,25.45 -14.89,53.99 -21.1,78.2 h -1.24 c -6.2,-24.21 -13.03,-53.37 -19.86,-78.2 l -32.27,-103.01 z m -119.77,-57.71 -35.99,-118.54 h -78.81 l 134.04,418.27 h 97.43 l 135.91,-418.27 h -82.54 l -37.86,118.54 h -132.18"/>
            <path d="m 3245.28,1599.98 c 0,6.21 -0.62,13.03 -1.86,18.62 -6.83,28.54 -31.03,52.75 -65.16,52.75 -49.65,0 -76.95,-41.58 -76.95,-98.67 0,-55.24 26.68,-96.82 75.09,-96.82 31.02,0 56.47,19.86 65.15,50.27 2.49,6.83 3.73,16.14 3.73,23.58 z m 0,-135.91 h -1.24 c -18,-29.16 -49.65,-48.4 -93.71,-48.4 -68.26,0 -126.59,58.95 -126.59,153.28 0,110.46 70.74,162.59 135.28,162.59 42.2,0 71.99,-18.61 88.12,-46.54 l 1.24,-0.62 1.86,40.33 h 73.85 c -1.24,-27.3 -2.48,-55.85 -2.48,-87.5 v -337.59 h -76.33 v 164.45"/>
            <path d="m 3674.09,1513.1 c 0,-36 1.24,-65.78 2.48,-90.61 h -66.4 l -3.72,45.31 h -1.87 c -13.03,-21.1 -42.81,-52.13 -97.43,-52.13 -54.61,0 -104.87,32.89 -104.87,131.56 v 177.48 h 76.32 v -164.45 c 0,-50.27 16.14,-82.54 56.48,-82.54 31.02,0 50.89,21.11 58.33,40.97 3.1,6.2 4.34,14.89 4.34,23.58 v 182.44 h 76.34 V 1513.1"/>
            <path d="m 3916.72,1570.19 c -53.99,0.62 -105.5,-10.55 -105.5,-56.47 0,-29.79 19.24,-43.44 43.45,-43.44 31.02,0 52.74,19.86 60.19,41.58 1.86,5.58 1.86,11.17 1.86,16.75 z m 74.47,-75.09 c 0,-27.3 1.24,-53.99 4.96,-72.61 h -68.88 l -5.58,33.52 h -1.87 c -17.99,-23.58 -49.64,-40.34 -89.36,-40.34 -60.81,0 -94.95,44.06 -94.95,89.98 0,75.71 67.64,114.81 179.35,114.19 v 4.96 c 0,19.86 -8.07,52.75 -61.44,52.75 -29.79,0 -60.81,-9.31 -81.29,-22.34 l -14.89,49.65 c 22.33,13.65 61.43,26.68 109.22,26.68 96.8,0 124.73,-61.44 124.73,-127.84 v -108.6"/>
            <path d="m 4203.41,1840.76 h 242.02 v -62.67 h -165.69 v -115.43 h 153.9 v -62.06 h -153.9 v -178.11 h -76.33 v 418.27"/>
            <path d="m 4558.37,1573.3 c 0,-58.34 29.16,-102.4 75.09,-102.4 43.43,0 73.84,42.2 73.84,103.64 0,47.16 -21.1,101.77 -73.23,101.77 -53.98,0 -75.7,-52.75 -75.7,-103.01 z m 227.74,3.1 c 0,-111.09 -78.19,-160.73 -155.13,-160.73 -85.02,0 -151.43,58.33 -151.43,155.76 0,99.3 65.17,160.11 156.39,160.11 89.98,0 150.17,-63.3 150.17,-155.14"/>
            <path d="m 4848.78,1627.28 c 0,40.96 -0.62,70.75 -2.48,97.43 h 65.78 l 3.11,-57.09 h 1.85 c 14.89,42.2 50.27,63.92 83.17,63.92 7.44,0 11.78,-0.62 17.98,-1.86 v -71.36 c -6.82,1.24 -13.65,1.86 -22.96,1.86 -35.99,0 -61.43,-22.97 -68.26,-57.72 -1.24,-6.83 -1.86,-14.89 -1.86,-22.96 v -157.01 h -76.33 v 204.79"/>
            <path d="m 5286.29,1431.8 c -16.13,-7.44 -47.78,-15.51 -85.65,-15.51 -94.32,0 -155.76,60.81 -155.76,154.52 0,90.61 62.06,160.73 168.18,160.73 27.93,0 56.47,-6.2 73.84,-13.65 l -13.65,-57.71 c -12.41,6.2 -30.4,11.79 -57.7,11.79 -58.34,0 -93.09,-42.82 -92.47,-98.05 0,-62.06 40.34,-97.44 92.47,-97.44 26.05,0 45.29,5.59 60.19,11.8 l 10.55,-56.48"/>
            <path d="m 5523.96,1605.57 c 0.62,27.92 -11.79,73.84 -62.68,73.84 -47.16,0 -67.02,-42.82 -70.12,-73.84 z m -132.8,-53.37 c 1.86,-54.62 44.05,-78.2 93.09,-78.2 35.37,0 60.19,5.59 83.78,13.66 l 11.16,-52.13 c -26.06,-11.17 -62.05,-19.24 -105.5,-19.24 -98.05,0 -155.76,60.19 -155.76,152.66 0,83.78 50.89,162.59 147.7,162.59 98.05,0 130.32,-80.68 130.32,-147.08 0,-14.27 -1.24,-25.44 -2.48,-32.26 h -202.31"/>
            <path d="m 1302.56,1649.02 c 17.93,0 32.46,11.82 32.46,26.41 0,14.58 -14.53,26.41 -32.46,26.41 -17.92,0 -32.45,-11.83 -32.45,-26.41 0,-14.59 14.53,-26.41 32.45,-26.41 z m 506.01,0 c 17.93,0 32.46,11.82 32.46,26.41 0,14.58 -14.53,26.41 -32.46,26.41 -17.92,0 -32.46,-11.83 -32.46,-26.41 0,-14.59 14.54,-26.41 32.46,-26.41 z m 136.41,-584.13 c -29.97,0 -54.27,-19.36 -54.27,-43.23 0,-23.879 24.3,-43.238 54.27,-43.238 29.97,0 54.26,19.359 54.26,43.238 0,23.87 -24.29,43.23 -54.26,43.23 z m 248.82,-69.64 c 17.93,0 32.46,11.82 32.46,26.41 0,14.58 -14.53,26.4 -32.46,26.4 -17.92,0 -32.45,-11.82 -32.45,-26.4 0,-14.59 14.53,-26.41 32.45,-26.41 z m -506,0 c 17.92,0 32.45,11.82 32.45,26.41 0,14.58 -14.53,26.4 -32.45,26.4 -17.93,0 -32.46,-11.82 -32.46,-26.4 0,-14.59 14.53,-26.41 32.46,-26.41 z m -258.85,0 c 17.93,0 32.46,11.82 32.46,26.41 0,14.58 -14.53,26.4 -32.46,26.4 -17.93,0 -32.46,-11.82 -32.46,-26.4 0,-14.59 14.53,-26.41 32.46,-26.41 z m -506.009,0 c 17.926,0 32.457,11.82 32.457,26.41 0,14.58 -14.531,26.4 -32.457,26.4 -17.925,0 -32.457,-11.82 -32.457,-26.4 0,-14.59 14.532,-26.41 32.457,-26.41 z m 631.299,416.21 c -18.2,0 -32.94,-11.85 -32.94,-26.47 0,-14.62 14.74,-26.47 32.94,-26.47 18.19,0 32.94,11.85 32.94,26.47 0,14.62 -14.75,26.47 -32.94,26.47 z m 0,158.53 c -23.54,0 -42.62,-16.99 -42.62,-37.94 0,-20.96 19.08,-37.94 42.62,-37.94 23.53,0 42.61,16.98 42.61,37.94 0,20.95 -19.08,37.94 -42.61,37.94 z m 0,148.67 c -29.97,0 -54.27,-19.35 -54.27,-43.23 0,-23.88 24.3,-43.24 54.27,-43.24 29.97,0 54.26,19.36 54.26,43.24 0,23.88 -24.29,43.23 -54.26,43.23 z m 0,215.71 c 18.19,0 32.94,11.85 32.94,26.47 0,14.62 -14.75,26.47 -32.94,26.47 -18.2,0 -32.94,-11.85 -32.94,-26.47 0,-14.62 14.74,-26.47 32.94,-26.47 z m 0,-158.53 c 23.53,0 42.61,16.99 42.61,37.95 0,20.95 -19.08,37.94 -42.61,37.94 -23.54,0 -42.62,-16.99 -42.62,-37.94 0,-20.96 19.08,-37.95 42.62,-37.95 z m 0,-816.34 c -6.82,0 -12.36,-5.531 -12.36,-12.359 0,-6.821 5.54,-12.352 12.36,-12.352 6.82,0 12.35,5.531 12.35,12.352 0,6.828 -5.53,12.359 -12.35,12.359 z m 0,147.35 c -6.82,0 -12.36,-5.53 -12.36,-12.35 0,-6.83 5.54,-12.36 12.36,-12.36 6.82,0 12.35,5.53 12.35,12.36 0,6.82 -5.53,12.35 -12.35,12.35 z M 1180.13,757.691 c -18.2,0 -32.94,-11.859 -32.94,-26.472 0,-14.617 14.74,-26.481 32.94,-26.481 18.19,0 32.94,11.864 32.94,26.481 0,14.613 -14.75,26.472 -32.94,26.472 z m 0,158.528 c -23.54,0 -42.62,-16.989 -42.62,-37.949 0,-20.95 19.08,-37.942 42.62,-37.942 23.53,0 42.61,16.992 42.61,37.942 0,20.96 -19.08,37.949 -42.61,37.949 z m 0,148.671 c -29.97,0 -54.27,-19.36 -54.27,-43.23 0,-23.879 24.3,-43.238 54.27,-43.238 29.97,0 54.26,19.359 54.26,43.238 0,23.87 -24.29,43.23 -54.26,43.23 z m 0,215.71 c 18.19,0 32.94,11.85 32.94,26.47 0,14.62 -14.75,26.47 -32.94,26.47 -18.2,0 -32.94,-11.85 -32.94,-26.47 0,-14.62 14.74,-26.47 32.94,-26.47 z m 0,-158.53 c 23.53,0 42.61,16.99 42.61,37.94 0,20.96 -19.08,37.94 -42.61,37.94 -23.54,0 -42.62,-16.98 -42.62,-37.94 0,-20.95 19.08,-37.94 42.62,-37.94 z m 764.85,-364.379 c -18.19,0 -32.94,-11.859 -32.94,-26.472 0,-14.617 14.75,-26.481 32.94,-26.481 18.19,0 32.94,11.864 32.94,26.481 0,14.613 -14.75,26.472 -32.94,26.472 z m 0,158.528 c -23.54,0 -42.62,-16.989 -42.62,-37.949 0,-20.95 19.08,-37.942 42.62,-37.942 23.54,0 42.62,16.992 42.62,37.942 0,20.96 -19.08,37.949 -42.62,37.949 z m 0,364.381 c 18.19,0 32.94,11.85 32.94,26.47 0,14.62 -14.75,26.47 -32.94,26.47 -18.19,0 -32.94,-11.85 -32.94,-26.47 0,-14.62 14.75,-26.47 32.94,-26.47 z m 0,-158.53 c 23.54,0 42.62,16.99 42.62,37.94 0,20.96 -19.08,37.94 -42.62,37.94 -23.54,0 -42.62,-16.98 -42.62,-37.94 0,-20.95 19.08,-37.94 42.62,-37.94 z m -262.9,925.13 c -6.82,0 -12.35,-5.54 -12.35,-12.36 0,-6.82 5.53,-12.35 12.35,-12.35 6.82,0 12.35,5.53 12.35,12.35 0,6.82 -5.53,12.36 -12.35,12.36 z m -262.94,0 c -6.82,0 -12.35,-5.54 -12.35,-12.36 0,-6.82 5.53,-12.35 12.35,-12.35 6.82,0 12.35,5.53 12.35,12.35 0,6.82 -5.53,12.36 -12.35,12.36 z m 506.34,-433.93 c -6.82,0 -12.35,-5.53 -12.35,-12.35 0,-6.83 5.53,-12.36 12.35,-12.36 6.82,0 12.36,5.53 12.36,12.36 0,6.82 -5.54,12.35 -12.36,12.35 z m 0,147.35 c -6.82,0 -12.35,-5.53 -12.35,-12.35 0,-6.82 5.53,-12.35 12.35,-12.35 6.82,0 12.36,5.53 12.36,12.35 0,6.82 -5.54,12.35 -12.36,12.35 z m -116.91,221.87 c -6.82,0 -12.35,-5.53 -12.35,-12.35 0,-6.83 5.53,-12.36 12.35,-12.36 6.82,0 12.35,5.53 12.35,12.36 0,6.82 -5.53,12.35 -12.35,12.35 z m -508.26,0 c -6.82,0 -12.35,-5.53 -12.35,-12.35 0,-6.83 5.53,-12.36 12.35,-12.36 6.83,0 12.36,5.53 12.36,12.36 0,6.82 -5.53,12.35 -12.36,12.35 z m 508.26,-422.65 c -15.05,0 -27.25,-9.92 -27.25,-22.17 0,-12.24 12.2,-22.17 27.25,-22.17 15.05,0 27.25,9.93 27.25,22.17 0,12.25 -12.2,22.17 -27.25,22.17 z m -506.81,0 c -15.04,0 -27.24,-9.92 -27.24,-22.17 0,-12.24 12.2,-22.17 27.24,-22.17 15.05,0 27.25,9.93 27.25,22.17 0,12.25 -12.2,22.17 -27.25,22.17 z m 385.05,-75.59 c -18.2,0 -32.94,-11.85 -32.94,-26.47 0,-14.62 14.74,-26.47 32.94,-26.47 18.19,0 32.94,11.85 32.94,26.47 0,14.62 -14.75,26.47 -32.94,26.47 z m -263.68,0 c -18.19,0 -32.94,-11.85 -32.94,-26.47 0,-14.62 14.75,-26.47 32.94,-26.47 18.19,0 32.94,11.85 32.94,26.47 0,14.62 -14.75,26.47 -32.94,26.47 z m 263.68,147.94 c -23.54,0 -42.62,-16.69 -42.62,-37.28 0,-20.58 19.08,-37.27 42.62,-37.27 23.53,0 42.61,16.69 42.61,37.27 0,20.59 -19.08,37.28 -42.61,37.28 z m -263.83,0 c -23.53,0 -42.61,-16.69 -42.61,-37.28 0,-20.58 19.08,-37.27 42.61,-37.27 23.54,0 42.62,16.69 42.62,37.27 0,20.59 -19.08,37.28 -42.62,37.28 z m -121.22,153.8 c 15.05,0 27.25,9.92 27.25,22.17 0,12.24 -12.2,22.17 -27.25,22.17 -15.04,0 -27.24,-9.93 -27.24,-22.17 0,-12.25 12.2,-22.17 27.24,-22.17 z m 506.81,0 c 15.05,0 27.25,9.92 27.25,22.17 0,12.24 -12.2,22.17 -27.25,22.17 -15.05,0 -27.25,-9.93 -27.25,-22.17 0,-12.25 12.2,-22.17 27.25,-22.17 z m -385.04,75.59 c 18.19,0 32.94,11.85 32.94,26.47 0,14.62 -14.75,26.47 -32.94,26.47 -18.19,0 -32.94,-11.85 -32.94,-26.47 0,-14.62 14.75,-26.47 32.94,-26.47 z m 263.68,0 c 18.19,0 32.94,11.85 32.94,26.47 0,14.62 -14.75,26.47 -32.94,26.47 -18.2,0 -32.95,-11.85 -32.95,-26.47 0,-14.62 14.75,-26.47 32.95,-26.47 z m -263.68,-147.94 c 23.54,0 42.62,16.69 42.62,37.28 0,20.58 -19.08,37.28 -42.62,37.28 -23.54,0 -42.62,-16.7 -42.62,-37.28 0,-20.59 19.08,-37.28 42.62,-37.28 z m 263.82,0 c 23.54,0 42.62,16.69 42.62,37.28 0,20.58 -19.08,37.28 -42.62,37.28 -23.53,0 -42.61,-16.7 -42.61,-37.28 0,-20.59 19.08,-37.28 42.61,-37.28 z m -384.89,-320.22 c -6.82,0 -12.35,-5.53 -12.35,-12.35 0,-6.82 5.53,-12.35 12.35,-12.35 6.82,0 12.35,5.53 12.35,12.35 0,6.82 -5.53,12.35 -12.35,12.35 z m -136.47,365.29 c -6.82,0 -12.35,-5.53 -12.35,-12.35 0,-6.82 5.53,-12.36 12.35,-12.36 6.82,0 12.35,5.54 12.35,12.36 0,6.82 -5.53,12.35 -12.35,12.35 z m 0,-147.65 c -6.82,0 -12.35,-5.53 -12.35,-12.35 0,-6.82 5.53,-12.35 12.35,-12.35 6.82,0 12.35,5.53 12.35,12.35 0,6.82 -5.53,12.35 -12.35,12.35 z m -126.47,-217.64 c -6.82,0 -12.36,-5.53 -12.36,-12.35 0,-6.82 5.54,-12.35 12.36,-12.35 6.82,0 12.35,5.53 12.35,12.35 0,6.82 -5.53,12.35 -12.35,12.35 z M 788.457,1106.55 c -6.82,0 -12.352,-5.53 -12.352,-12.35 0,-6.82 5.532,-12.35 12.352,-12.35 6.824,0 12.352,5.53 12.352,12.35 0,6.82 -5.528,12.35 -12.352,12.35 z m 0,-147.64 c -6.82,0 -12.352,-5.531 -12.352,-12.359 0,-6.821 5.532,-12.352 12.352,-12.352 6.824,0 12.352,5.531 12.352,12.352 0,6.828 -5.528,12.359 -12.352,12.359 z M 1038.34,673.98 c -6.82,0 -12.35,-5.531 -12.35,-12.351 0,-6.82 5.53,-12.348 12.35,-12.348 6.82,0 12.35,5.528 12.35,12.348 0,6.82 -5.53,12.351 -12.35,12.351 z m 264.12,0 c -6.82,0 -12.35,-5.531 -12.35,-12.351 0,-6.82 5.53,-12.348 12.35,-12.348 6.82,0 12.35,5.528 12.35,12.348 0,6.82 -5.53,12.351 -12.35,12.351 z m 126.49,73.75 c -6.82,0 -12.35,-5.531 -12.35,-12.351 0,-6.82 5.53,-12.348 12.35,-12.348 6.82,0 12.35,5.528 12.35,12.348 0,6.82 -5.53,12.351 -12.35,12.351 z m 0,580.99 c -6.82,0 -12.35,-5.54 -12.35,-12.36 0,-6.82 5.53,-12.35 12.35,-12.35 6.82,0 12.35,5.53 12.35,12.35 0,6.82 -5.53,12.36 -12.35,12.36 z m -508.255,0 c -6.824,0 -12.355,-5.54 -12.355,-12.36 0,-6.82 5.531,-12.35 12.355,-12.35 6.821,0 12.352,5.53 12.352,12.35 0,6.82 -5.531,12.36 -12.352,12.36 z M 1428.95,906.07 c -15.05,0 -27.25,-9.929 -27.25,-22.172 0,-12.238 12.2,-22.168 27.25,-22.168 15.05,0 27.25,9.93 27.25,22.168 0,12.243 -12.2,22.172 -27.25,22.172 z m -506.805,0 c -15.047,0 -27.247,-9.929 -27.247,-22.172 0,-12.238 12.2,-22.168 27.247,-22.168 15.046,0 27.246,9.93 27.246,22.168 0,12.243 -12.2,22.172 -27.246,22.172 z m 385.045,-75.59 c -18.2,0 -32.95,-11.851 -32.95,-26.468 0,-14.621 14.75,-26.473 32.95,-26.473 18.19,0 32.94,11.852 32.94,26.473 0,14.617 -14.75,26.468 -32.94,26.468 z m -263.68,0 c -18.19,0 -32.94,-11.851 -32.94,-26.468 0,-14.621 14.75,-26.473 32.94,-26.473 18.19,0 32.94,11.852 32.94,26.473 0,14.617 -14.75,26.468 -32.94,26.468 z m 263.68,147.942 c -23.54,0 -42.62,-16.692 -42.62,-37.281 0,-20.59 19.08,-37.282 42.62,-37.282 23.53,0 42.61,16.692 42.61,37.282 0,20.589 -19.08,37.281 -42.61,37.281 z m -263.83,0 c -23.53,0 -42.62,-16.692 -42.62,-37.281 0,-20.59 19.09,-37.282 42.62,-37.282 23.54,0 42.62,16.692 42.62,37.282 0,20.589 -19.08,37.281 -42.62,37.281 z M 922.145,1132.22 c 15.046,0 27.246,9.92 27.246,22.17 0,12.24 -12.2,22.16 -27.246,22.16 -15.047,0 -27.247,-9.92 -27.247,-22.16 0,-12.25 12.2,-22.17 27.247,-22.17 z m 506.805,0 c 15.05,0 27.25,9.92 27.25,22.17 0,12.24 -12.2,22.16 -27.25,22.16 -15.05,0 -27.25,-9.92 -27.25,-22.16 0,-12.25 12.2,-22.17 27.25,-22.17 z m -385.04,75.58 c 18.19,0 32.94,11.86 32.94,26.48 0,14.61 -14.75,26.47 -32.94,26.47 -18.19,0 -32.94,-11.86 -32.94,-26.47 0,-14.62 14.75,-26.48 32.94,-26.48 z m 263.68,0 c 18.19,0 32.94,11.86 32.94,26.48 0,14.61 -14.75,26.47 -32.94,26.47 -18.2,0 -32.95,-11.86 -32.95,-26.47 0,-14.62 14.75,-26.48 32.95,-26.48 z m -263.68,-147.94 c 23.54,0 42.62,16.69 42.62,37.28 0,20.59 -19.08,37.28 -42.62,37.28 -23.54,0 -42.62,-16.69 -42.62,-37.28 0,-20.59 19.08,-37.28 42.62,-37.28 z m 263.82,0 c 23.54,0 42.62,16.69 42.62,37.28 0,20.59 -19.08,37.28 -42.62,37.28 -23.53,0 -42.61,-16.69 -42.61,-37.28 0,-20.59 19.08,-37.28 42.61,-37.28 z m 759.58,333.56 c -6.82,0 -12.35,-5.53 -12.35,-12.35 0,-6.82 5.53,-12.35 12.35,-12.35 6.82,0 12.35,5.53 12.35,12.35 0,6.82 -5.53,12.35 -12.35,12.35 z m -262.94,0 c -6.82,0 -12.35,-5.53 -12.35,-12.35 0,-6.82 5.53,-12.35 12.35,-12.35 6.82,0 12.35,5.53 12.35,12.35 0,6.82 -5.53,12.35 -12.35,12.35 z m -1.18,-719.44 c -6.82,0 -12.35,-5.531 -12.35,-12.351 0,-6.82 5.53,-12.348 12.35,-12.348 6.83,0 12.36,5.528 12.36,12.348 0,6.82 -5.53,12.351 -12.36,12.351 z m 264.12,0 c -6.82,0 -12.35,-5.531 -12.35,-12.351 0,-6.82 5.53,-12.348 12.35,-12.348 6.82,0 12.35,5.528 12.35,12.348 0,6.82 -5.53,12.351 -12.35,12.351 z m 126.49,73.75 c -6.82,0 -12.35,-5.531 -12.35,-12.351 0,-6.82 5.53,-12.348 12.35,-12.348 6.83,0 12.36,5.528 12.36,12.348 0,6.82 -5.53,12.351 -12.36,12.351 z m 116.91,211.77 c -6.82,0 -12.35,-5.531 -12.35,-12.359 0,-6.821 5.53,-12.352 12.35,-12.352 6.83,0 12.36,5.531 12.36,12.352 0,6.828 -5.53,12.359 -12.36,12.359 z m 0,147.35 c -6.82,0 -12.35,-5.53 -12.35,-12.35 0,-6.83 5.53,-12.36 12.35,-12.36 6.83,0 12.36,5.53 12.36,12.36 0,6.82 -5.53,12.35 -12.36,12.35 z m -116.91,221.87 c -6.82,0 -12.35,-5.54 -12.35,-12.36 0,-6.82 5.53,-12.35 12.35,-12.35 6.83,0 12.36,5.53 12.36,12.35 0,6.82 -5.53,12.36 -12.36,12.36 z m -508.25,0 c -6.83,0 -12.36,-5.54 -12.36,-12.36 0,-6.82 5.53,-12.35 12.36,-12.35 6.82,0 12.35,5.53 12.35,12.35 0,6.82 -5.53,12.36 -12.35,12.36 z M 2193.8,906.07 c -15.05,0 -27.24,-9.929 -27.24,-22.172 0,-12.238 12.19,-22.168 27.24,-22.168 15.05,0 27.25,9.93 27.25,22.168 0,12.243 -12.2,22.172 -27.25,22.172 z m -506.8,0 c -15.05,0 -27.25,-9.929 -27.25,-22.172 0,-12.238 12.2,-22.168 27.25,-22.168 15.05,0 27.24,9.93 27.24,22.168 0,12.243 -12.19,22.172 -27.24,22.172 z m 385.04,-75.59 c -18.19,0 -32.94,-11.851 -32.94,-26.468 0,-14.621 14.75,-26.473 32.94,-26.473 18.19,0 32.94,11.852 32.94,26.473 0,14.617 -14.75,26.468 -32.94,26.468 z m -263.68,0 c -18.19,0 -32.94,-11.851 -32.94,-26.468 0,-14.621 14.75,-26.473 32.94,-26.473 18.19,0 32.94,11.852 32.94,26.473 0,14.617 -14.75,26.468 -32.94,26.468 z m 263.68,147.942 c -23.54,0 -42.62,-16.692 -42.62,-37.281 0,-20.59 19.08,-37.282 42.62,-37.282 23.54,0 42.62,16.692 42.62,37.282 0,20.589 -19.08,37.281 -42.62,37.281 z m -263.83,0 c -23.53,0 -42.61,-16.692 -42.61,-37.281 0,-20.59 19.08,-37.282 42.61,-37.282 23.54,0 42.62,16.692 42.62,37.282 0,20.589 -19.08,37.281 -42.62,37.281 z M 1687,1132.22 c 15.05,0 27.24,9.92 27.24,22.17 0,12.24 -12.19,22.16 -27.24,22.16 -15.05,0 -27.25,-9.92 -27.25,-22.16 0,-12.25 12.2,-22.17 27.25,-22.17 z m 506.8,0 c 15.05,0 27.25,9.92 27.25,22.17 0,12.24 -12.2,22.16 -27.25,22.16 -15.05,0 -27.24,-9.92 -27.24,-22.16 0,-12.25 12.19,-22.17 27.24,-22.17 z m -385.04,75.58 c 18.19,0 32.94,11.86 32.94,26.48 0,14.61 -14.75,26.47 -32.94,26.47 -18.19,0 -32.94,-11.86 -32.94,-26.47 0,-14.62 14.75,-26.48 32.94,-26.48 z m 263.68,0 c 18.19,0 32.94,11.86 32.94,26.48 0,14.61 -14.75,26.47 -32.94,26.47 -18.19,0 -32.94,-11.86 -32.94,-26.47 0,-14.62 14.75,-26.48 32.94,-26.48 z m -263.68,-147.94 c 23.54,0 42.62,16.69 42.62,37.28 0,20.59 -19.08,37.28 -42.62,37.28 -23.54,0 -42.62,-16.69 -42.62,-37.28 0,-20.59 19.08,-37.28 42.62,-37.28 z m 263.83,0 c 23.53,0 42.61,16.69 42.61,37.28 0,20.59 -19.08,37.28 -42.61,37.28 -23.54,0 -42.62,-16.69 -42.62,-37.28 0,-20.59 19.08,-37.28 42.62,-37.28 z M 933.047,735.379 c 0,-6.82 -5.531,-12.348 -12.352,-12.348 -6.824,0 -12.355,5.528 -12.355,12.348 0,6.82 5.531,12.351 12.355,12.351 6.821,0 12.352,-5.531 12.352,-12.351 z m 767.103,0 c 0,-6.82 -5.53,-12.348 -12.35,-12.348 -6.83,0 -12.36,5.528 -12.36,12.348 0,6.82 5.53,12.351 12.36,12.351 6.82,0 12.35,-5.531 12.35,-12.351"/>
        </g>
    </g>
</svg>