<svg version="1.0" xmlns="http://www.w3.org/2000/svg" viewBox="0 0 7176.000000 2178.000000" preserveAspectRatio="xMidYMid meet">
    <g transform="translate(0.000000,2178.000000) scale(0.100000,-0.100000)" fill="#fff" stroke="none">
        <path d="M23660 10540 l0 -8750 2268 0 c2523 0 2585 2 3052 70 1515 224 2518 1034 2944 2380 107 340 172 684 217 1155 17 172 24 2030 10 2330 -30 615 -121 1118 -287 1595 -298 856 -795 1389 -1630 1745 -60 26 -111 48 -113 50 -2 2 47 29 109 60 536 269 951 683 1216 1215 221 442 357 975 414 1620 23 258 33 926 22 1357 -15 523 -42 812 -108 1153 -228 1162 -800 1955 -1708 2364 -470 211 -935 320 -1666 388 -89 8 -783 12 -2432 15 l-2308 4 0 -8751z m4425 6222 c650 -128 954 -537 1035 -1392 17 -175 24 -1151 11 -1475 -16 -420 -65 -695 -166 -934 -157 -373 -466 -619 -915 -730 -236 -58 -294 -62 -997 -68 l-643 -5 0 2316 0 2317 783 -3 c755 -4 786 -5 892 -26z m-81 -7117 c438 -51 781 -198 986 -422 238 -259 372 -695 410 -1328 13 -227 13 -2009 -1 -2190 -25 -335 -87 -602 -186 -799 -152 -302 -429 -498 -812 -576 -182 -36 -284 -40 -1147 -40 l-844 0 0 2685 0 2685 733 0 c588 0 757 -3 861 -15z"/>
        <path d="M33810 10540 l0 -8750 3640 0 3640 0 0 1250 0 1250 -2265 0 -2265 0 0 7500 0 7500 -1375 0 -1375 0 0 -8750z"/>
        <path d="M42967 10547 c-769 -4808 -1398 -8745 -1398 -8749 1 -5 568 -8 1261 -8 l1259 0 6 33 c13 76 465 3111 465 3123 0 12 263 14 1689 14 1600 0 1689 -1 1693 -17 3 -10 110 -723 239 -1585 l234 -1568 1388 0 1389 0 -6 27 c-3 16 -631 3939 -1396 8718 -764 4780 -1392 8705 -1395 8723 l-6 32 -2012 0 -2012 0 -1398 -8743z m3936 1215 c362 -2418 658 -4403 657 -4409 0 -10 -271 -13 -1320 -13 -1049 0 -1320 3 -1320 13 -1 26 1315 8807 1320 8807 3 0 301 -1979 663 -4398z"/>
        <path d="M52042 19273 c3 -10 649 -1923 1437 -4251 l1431 -4232 -1531 -4483 c-843 -2465 -1534 -4490 -1537 -4499 -4 -17 62 -18 1281 -18 l1285 0 106 318 c58 174 569 1730 1136 3457 568 1727 1033 3141 1034 3143 2 2 536 -1637 1958 -6015 l293 -903 1449 0 c1374 0 1448 1 1444 18 -3 9 -694 2034 -1537 4499 l-1531 4483 1431 4232 c788 2328 1434 4241 1437 4251 4 16 -61 17 -1269 17 l-1274 0 -1060 -3220 c-583 -1771 -1062 -3220 -1065 -3220 -3 0 -471 1449 -1040 3220 l-1035 3220 -1424 0 c-1351 0 -1423 -1 -1419 -17z"/>
        <path d="M63210 10540 l0 -8750 3750 0 3750 0 0 1250 0 1250 -2375 0 -2375 0 0 2560 0 2560 1888 2 1887 3 3 1248 2 1247 -1890 0 -1890 0 0 2440 0 2440 2375 0 2375 0 0 1250 0 1250 -3750 0 -3750 0 0 -8750z"/>
        <path d="M8955 19245 c-116 -19 -270 -67 -365 -114 -42 -21 -235 -130 -430 -243 -195 -113 -413 -239 -485 -280 -121 -69 -245 -142 -675 -390 -333 -192 -1409 -813 -1594 -920 -105 -60 -236 -136 -291 -168 -102 -59 -552 -319 -1255 -725 -217 -125 -584 -337 -815 -470 -231 -134 -550 -318 -710 -410 -366 -211 -407 -239 -520 -346 -110 -106 -200 -229 -265 -364 -92 -190 -120 -309 -127 -547 l-5 -178 2953 0 2954 0 24 83 c60 210 136 373 259 557 59 88 113 151 227 265 191 191 336 291 580 401 80 36 279 101 331 108 16 2 83 14 149 26 106 19 142 21 310 17 115 -3 216 -11 255 -20 36 -9 84 -18 107 -22 23 -3 68 -15 99 -25 32 -11 64 -20 73 -20 9 0 28 -6 43 -14 14 -8 43 -19 65 -26 78 -26 337 -161 363 -190 3 -3 32 -23 65 -45 94 -63 318 -287 399 -400 87 -121 158 -241 201 -341 18 -41 36 -78 39 -81 3 -4 6 -17 6 -29 0 -13 4 -25 9 -28 4 -3 14 -27 21 -53 6 -27 18 -68 26 -93 8 -25 25 -110 39 -190 35 -202 35 -402 0 -603 -14 -80 -30 -158 -36 -174 -6 -15 -14 -46 -19 -68 -22 -105 -137 -356 -221 -478 -113 -166 -138 -197 -248 -308 -108 -108 -156 -147 -299 -241 -32 -21 -61 -41 -67 -46 -19 -15 -170 -91 -240 -120 -104 -42 -158 -62 -172 -62 -8 0 -53 -11 -101 -24 -197 -56 -510 -74 -698 -40 -49 8 -98 16 -109 16 -11 0 -51 9 -89 20 -38 11 -78 21 -89 24 -35 6 -92 26 -102 35 -5 5 -17 9 -28 9 -22 0 -260 116 -333 163 -130 83 -219 155 -331 269 -129 130 -214 238 -295 376 -51 85 -128 245 -128 265 -1 7 -9 30 -20 52 -11 22 -19 46 -20 54 0 8 -10 45 -22 83 l-22 68 -2953 0 -2953 0 0 -1140 0 -1140 1320 0 c1048 0 1321 3 1324 13 96 359 240 619 478 860 136 136 169 166 243 217 28 19 58 41 68 50 35 28 267 153 267 143 0 -3 6 0 14 6 17 15 133 58 220 83 38 10 72 21 75 23 4 2 78 15 165 30 146 25 174 27 345 22 268 -8 454 -48 706 -151 44 -18 134 -64 177 -89 84 -50 164 -102 183 -118 11 -10 47 -38 80 -63 166 -123 362 -366 478 -589 57 -111 116 -259 136 -342 5 -22 18 -74 29 -115 56 -219 56 -601 0 -820 -11 -41 -24 -93 -29 -115 -31 -127 -130 -349 -216 -482 -120 -184 -284 -366 -418 -464 -34 -24 -67 -50 -75 -57 -55 -49 -361 -215 -418 -227 -9 -2 -35 -11 -57 -21 -22 -9 -49 -18 -60 -19 -11 -2 -40 -10 -65 -19 -25 -8 -112 -27 -193 -41 -348 -59 -742 -11 -1052 130 -63 28 -161 76 -180 88 -270 164 -464 344 -629 582 -58 84 -166 288 -196 371 -34 94 -68 207 -72 234 l-3 25 -1322 3 -1323 2 0 -1707 c0 -1893 -3 -1796 66 -2003 67 -201 182 -380 335 -525 98 -92 168 -139 394 -270 440 -254 1971 -1137 2495 -1440 322 -186 860 -496 1195 -690 336 -194 770 -444 965 -557 195 -113 459 -265 585 -338 127 -73 406 -234 620 -359 215 -124 428 -245 473 -269 346 -182 753 -198 1111 -43 73 31 291 153 706 396 50 29 299 173 555 320 721 416 1219 703 1290 745 36 21 196 113 355 205 160 92 335 193 390 225 55 32 273 158 485 280 1018 587 1170 675 1230 710 36 21 238 138 450 260 958 552 1186 686 1244 728 87 65 222 205 284 295 138 200 217 429 229 665 l6 102 -2945 0 c-2797 0 -2946 -1 -2951 -17 -2 -10 -14 -54 -26 -98 -12 -44 -26 -84 -32 -89 -5 -6 -9 -20 -9 -31 0 -12 -3 -24 -6 -28 -3 -3 -21 -40 -39 -81 -43 -100 -114 -220 -201 -341 -81 -113 -305 -337 -399 -400 -33 -22 -62 -43 -65 -47 -5 -7 -95 -59 -189 -110 -30 -17 -88 -43 -130 -60 -42 -16 -90 -36 -108 -44 -17 -8 -38 -14 -45 -14 -8 0 -40 -9 -72 -20 -31 -10 -76 -22 -99 -25 -23 -4 -71 -13 -107 -22 -39 -9 -140 -17 -255 -20 -168 -4 -204 -2 -310 17 -66 12 -133 24 -149 26 -52 7 -247 70 -331 108 -238 105 -387 208 -580 401 -248 248 -378 467 -483 810 -12 39 -33 138 -48 220 -23 133 -25 170 -22 330 5 190 21 304 64 451 13 45 24 88 24 95 1 8 9 32 20 54 11 22 19 45 20 52 0 20 77 180 129 267 147 249 395 502 641 654 65 40 298 152 317 152 11 0 23 4 28 9 10 9 67 29 102 35 11 3 51 13 89 24 38 11 78 20 89 20 11 0 60 8 109 16 188 34 501 16 698 -40 48 -13 94 -24 103 -24 9 0 35 -9 57 -20 23 -11 47 -20 53 -20 15 0 194 -81 228 -103 14 -9 30 -17 35 -17 4 0 17 -7 27 -15 11 -8 45 -32 77 -53 144 -95 191 -133 299 -241 110 -111 135 -142 248 -308 81 -118 198 -369 221 -473 4 -19 13 -55 20 -80 l13 -45 2943 3 2944 2 0 1200 0 1200 -1299 0 -1298 0 -12 -47 c-35 -135 -120 -352 -163 -415 -10 -14 -18 -31 -18 -36 0 -6 -6 -17 -13 -24 -7 -7 -25 -35 -41 -62 -116 -199 -335 -417 -587 -583 -51 -34 -289 -152 -317 -158 -9 -2 -39 -13 -66 -24 -27 -12 -51 -19 -54 -17 -2 3 -27 -4 -56 -14 -28 -11 -118 -31 -199 -45 -349 -59 -719 -14 -1047 127 -105 46 -261 129 -297 158 -10 9 -39 30 -64 47 -69 48 -114 87 -224 198 -135 135 -152 155 -226 266 -162 244 -245 446 -299 731 -16 87 -20 148 -20 328 0 180 4 241 20 328 30 154 76 312 124 417 66 146 81 172 185 330 48 72 107 141 216 250 180 180 307 272 515 371 52 25 103 49 112 55 10 5 23 9 30 9 7 0 35 9 63 19 85 33 156 50 311 77 136 24 166 25 339 21 234 -7 430 -43 610 -112 131 -50 149 -59 265 -122 37 -20 137 -86 235 -155 159 -112 381 -368 483 -558 93 -172 115 -225 183 -446 5 -17 9 -38 9 -47 0 -16 90 -17 1300 -17 l1300 0 -3 1748 -3 1747 -22 90 c-46 182 -127 352 -239 502 -66 88 -200 215 -291 276 -55 36 -962 562 -2307 1337 -121 70 -382 220 -580 335 -198 114 -475 274 -615 355 -316 182 -852 492 -1320 762 -195 113 -458 265 -585 338 -1279 738 -1207 699 -1335 744 -182 66 -439 91 -625 61z"/>
        <path d="M8964 14864 c-461 -77 -837 -413 -968 -865 -137 -474 37 -996 431 -1292 218 -164 463 -247 733 -247 557 0 1032 370 1175 915 53 199 44 463 -21 663 -166 507 -634 846 -1164 841 -58 -1 -141 -7 -186 -15z"/>
        <path d="M5750 11734 c-214 -33 -366 -90 -530 -199 -572 -381 -710 -1174 -300 -1724 68 -91 202 -221 287 -279 487 -331 1129 -269 1543 148 52 52 117 128 143 168 417 627 190 1458 -485 1777 -104 49 -238 90 -343 105 -67 9 -262 12 -315 4z"/>
        <path d="M12245 11724 c-376 -67 -702 -310 -874 -650 -81 -161 -131 -369 -131 -544 0 -520 352 -998 848 -1154 779 -244 1572 336 1572 1151 0 334 -116 618 -350 854 -236 238 -533 361 -870 358 -63 0 -151 -7 -195 -15z"/>
        <path d="M8950 8465 c-109 -20 -221 -59 -335 -115 -341 -169 -583 -497 -649 -880 -101 -588 259 -1173 832 -1354 634 -199 1308 151 1516 786 65 200 74 464 21 663 -124 470 -499 818 -973 900 -104 18 -310 18 -412 0z"/>
    </g>
</svg>
