<svg version="1.0" xmlns="http://www.w3.org/2000/svg" viewBox="0 0 391.000000 87.000000">
    <g transform="translate(0.000000,87.000000) scale(0.100000,-0.100000)" fill="#fff" stroke="none">
        <path d="M105 856 c-39 -18 -79 -63 -94 -105 -15 -47 -15 -585 0 -632 15 -43 55 -88 96 -105 53 -23 162 -18 214 9 70 37 92 86 97 219 l5 108 -82 0 -81 0 0 -81 c0 -44 -5 -89 -10 -100 -14 -26 -66 -26 -80 0 -14 26 -14 506 0 532 7 12 21 19 40 19 39 0 50 -23 50 -104 l0 -66 81 0 82 0 -5 94 c-6 117 -31 168 -97 203 -51 27 -165 32 -216 9z"/>
        <path d="M565 856 c-43 -18 -93 -79 -102 -123 -4 -21 -8 -159 -8 -308 0 -304 3 -323 65 -379 45 -40 83 -50 179 -44 56 3 75 9 106 32 71 54 75 74 75 399 0 237 -3 294 -15 324 -34 81 -91 113 -197 113 -40 -1 -87 -7 -103 -14z m145 -155 c6 -12 10 -115 10 -266 0 -151 -4 -254 -10 -266 -12 -22 -59 -26 -78 -7 -17 17 -17 529 0 546 19 19 66 15 78 -7z"/>
        <path d="M930 435 l0 -435 75 0 75 0 1 193 1 192 33 -190 c19 -104 34 -191 34 -192 2 -7 151 -2 152 5 0 4 13 86 29 182 l28 175 1 -182 1 -183 80 0 80 0 0 435 0 435 -108 0 -108 0 -33 -222 c-18 -123 -36 -231 -40 -242 -4 -11 -22 77 -45 223 l-39 241 -108 0 -109 0 0 -435z"/>
        <path d="M1580 435 l0 -435 80 0 80 0 0 175 0 175 85 0 85 0 0 75 0 75 -85 0 -85 0 0 105 0 105 110 0 110 0 0 80 0 80 -190 0 -190 0 0 -435z"/>
        <path d="M2490 435 l0 -435 190 0 190 0 0 80 0 80 -110 0 -110 0 0 355 0 355 -80 0 -80 0 0 -435z"/>
        <path d="M2890 435 l0 -435 80 0 80 0 0 435 0 435 -80 0 -80 0 0 -435z"/>
        <path d="M3120 435 l0 -435 80 0 80 0 0 175 0 175 85 0 85 0 0 75 0 75 -85 0 -85 0 0 105 0 105 110 0 111 0 -3 78 -3 77 -187 3 -188 2 0 -435z"/>
        <path d="M3530 435 l0 -435 190 0 190 0 0 80 0 80 -110 0 -110 0 0 100 0 99 88 3 87 3 3 78 3 77 -91 0 -90 0 0 95 0 95 110 0 110 0 0 80 0 80 -190 0 -190 0 0 -435z"/>
        <path d="M2025 178 c-60 -83 -111 -155 -113 -160 -2 -4 101 -8 228 -8 127 0 230 4 228 8 -6 16 -223 311 -228 311 -3 0 -54 -68 -115 -151z"/>
    </g>
</svg>
