<svg  viewBox="0 0 613 134" fill="#fff" xmlns="http://www.w3.org/2000/svg">
    <path d="M612.79 48.728L594.79 54.056C593.158 50.312 590.614 47.384 587.158 45.272C583.798 43.064 580.006 41.96 575.782 41.96C569.83 41.96 564.838 44.024 560.806 48.152C556.774 52.28 554.758 57.416 554.758 63.56C554.758 69.704 556.774 74.84 560.806 78.968C564.838 83.096 569.83 85.16 575.782 85.16C580.006 85.16 583.798 84.104 587.158 81.992C590.614 79.784 593.158 76.808 594.79 73.064L612.79 78.392C609.91 85.976 605.158 92.024 598.534 96.536C591.91 100.952 584.326 103.16 575.782 103.16C564.55 103.16 555.094 99.416 547.414 91.928C539.926 84.344 536.182 74.888 536.182 63.56C536.182 52.232 539.926 42.824 547.414 35.336C554.998 27.752 564.454 23.96 575.782 23.96C584.326 23.96 591.91 26.216 598.534 30.728C605.158 35.144 609.91 41.144 612.79 48.728Z" />
    <path d="M525.882 70.184H466.41C467.754 75.08 470.394 79.064 474.33 82.136C478.362 85.112 483.018 86.6 488.298 86.6C495.69 86.6 501.546 83.96 505.866 78.68L523.29 83.72C519.834 89.768 514.986 94.52 508.746 97.976C502.602 101.432 495.786 103.16 488.298 103.16C476.778 103.16 467.13 99.416 459.354 91.928C451.674 84.248 447.834 74.792 447.834 63.56C447.834 52.232 451.578 42.824 459.066 35.336C466.65 27.752 476.01 23.96 487.146 23.96C498.282 23.96 507.594 27.752 515.082 35.336C522.666 42.92 526.458 52.328 526.458 63.56C526.458 65.384 526.266 67.592 525.882 70.184ZM466.554 56.216H507.882C506.442 51.512 503.802 47.72 499.962 44.84C496.122 41.96 491.754 40.52 486.858 40.52C482.154 40.52 477.93 41.96 474.186 44.84C470.442 47.72 467.898 51.512 466.554 56.216Z" />
    <path d="M390.768 41.8159V26.1199H401.424V11.4319H419.424V26.1199H438V41.8159H419.424V74.7919C419.424 77.3839 420.288 79.5439 422.016 81.2719C423.744 82.9999 425.952 83.8639 428.64 83.8639H438V101H426.912C419.808 101 413.76 98.7439 408.768 94.2319C403.872 89.7199 401.424 84.1039 401.424 77.3839V41.8159H390.768Z" />
    <path d="M379.735 44.12L362.887 46.856C361.255 41.96 356.887 39.512 349.783 39.512C346.711 39.512 344.167 40.088 342.151 41.24C340.231 42.392 339.271 43.976 339.271 45.992C339.271 48.488 341.479 50.504 345.895 52.04L361.303 57.224C368.119 59.624 373.063 62.6 376.135 66.152C379.303 69.704 380.887 74.216 380.887 79.688C380.887 87.272 378.151 93.08 372.679 97.112C367.303 101.144 360.151 103.16 351.223 103.16C342.295 103.16 335.143 101.24 329.767 97.4C324.391 93.464 321.175 88.04 320.119 81.128L336.967 78.68C337.639 81.368 339.223 83.528 341.719 85.16C344.311 86.792 347.623 87.608 351.655 87.608C355.207 87.608 358.087 86.984 360.295 85.736C362.599 84.392 363.751 82.568 363.751 80.264C363.751 77.288 360.967 74.888 355.399 73.064L339.991 68.168C333.655 66.056 329.095 63.368 326.311 60.104C323.527 56.84 322.135 52.568 322.135 47.288C322.135 39.704 324.727 33.944 329.911 30.008C335.191 25.976 342.247 23.96 351.079 23.96C359.143 23.96 365.671 25.736 370.663 29.288C375.751 32.84 378.775 37.784 379.735 44.12Z" />
    <path d="M266.274 104.744L268.29 99.5599L239.49 26.1199H258.066L277.218 76.6639L296.802 26.1199H315.378L281.538 110.792C278.37 118.664 274.194 124.376 269.01 127.928C263.826 131.576 257.106 133.4 248.85 133.4H245.97V116.264H248.85C257.394 116.264 263.202 112.424 266.274 104.744Z" />
    <path d="M231.483 44.12L214.635 46.856C213.003 41.96 208.635 39.512 201.531 39.512C198.459 39.512 195.915 40.088 193.899 41.24C191.979 42.392 191.019 43.976 191.019 45.992C191.019 48.488 193.227 50.504 197.643 52.04L213.051 57.224C219.867 59.624 224.811 62.6 227.883 66.152C231.051 69.704 232.635 74.216 232.635 79.688C232.635 87.272 229.899 93.08 224.427 97.112C219.051 101.144 211.899 103.16 202.971 103.16C194.043 103.16 186.891 101.24 181.515 97.4C176.139 93.464 172.923 88.04 171.867 81.128L188.715 78.68C189.387 81.368 190.971 83.528 193.467 85.16C196.059 86.792 199.371 87.608 203.403 87.608C206.955 87.608 209.835 86.984 212.043 85.736C214.347 84.392 215.499 82.568 215.499 80.264C215.499 77.288 212.715 74.888 207.147 73.064L191.739 68.168C185.403 66.056 180.843 63.368 178.059 60.104C175.275 56.84 173.883 52.568 173.883 47.288C173.883 39.704 176.475 33.944 181.659 30.008C186.939 25.976 193.995 23.96 202.827 23.96C210.891 23.96 217.419 25.736 222.411 29.288C227.499 32.84 230.523 37.784 231.483 44.12Z" />
    <path d="M89.3848 101V26.12H107.385V35.192C112.857 27.704 120.345 23.96 129.849 23.96C138.297 23.96 145.305 26.744 150.873 32.312C156.537 37.976 159.369 44.936 159.369 53.192V101H141.369V58.232C141.369 53.336 139.737 49.256 136.473 45.992C133.305 42.728 129.321 41.096 124.521 41.096C119.625 41.096 115.545 42.728 112.281 45.992C109.017 49.256 107.385 53.336 107.385 58.232V101H89.3848Z" />
    <path d="M0.351562 0.199951H74.6556V18.056H19.6476V41.096H66.7356V58.952H19.6476V83.144H75.3756V101H0.351562V0.199951Z" />
</svg>
