<svg xmlns="http://www.w3.org/2000/svg" version="1.0" width="200
" preserveAspectRatio="xMidYMid meet" viewBox="846.95 804.07 1807.55 929.9">
    <g transform="translate(0.000000,2480.000000) scale(0.100000,-0.100000)" fill="#fff" stroke="none">
        <path d="M9240 16745 c-102 -21 -230 -71 -321 -127 -110 -68 -248 -206 -313 -316 -60 -101 -112 -250 -126 -362 -14 -118 -14 -7532 0 -7650 14 -112 66 -261 126 -362 29 -48 84 -118 134 -169 169 -173 370 -267 615 -289 151 -13 16159 -13 16310 0 131 12 231 38 342 90 106 50 162 88 252 174 129 125 218 275 263 446 l23 85 0 3850 0 3850 -23 85 c-46 176 -136 325 -273 454 -129 122 -289 205 -461 240 -70 15 -823 16 -8280 15 -6736 -1 -8215 -3 -8268 -14z m4065 -2280 l25 -24 0 -431 0 -431 -25 -24 -24 -25 -436 0 -436 0 -24 25 -25 24 0 431 0 431 25 24 24 25 436 0 436 0 24 -25z m885 -410 c3 -236 7 -431 8 -432 1 -2 173 -3 382 -3 l380 0 0 423 c0 232 4 428 8 435 7 9 57 12 218 10 l209 -3 3 -1064 c2 -845 0 -1066 -10 -1073 -22 -13 -402 -10 -416 4 -9 9 -12 120 -12 439 0 380 -2 428 -16 433 -26 10 -718 7 -734 -4 -13 -8 -16 -72 -20 -442 l-5 -433 -210 0 -210 0 -3 1060 c-1 583 0 1066 3 1073 3 10 52 12 212 10 l208 -3 5 -430z m1885 -640 l0 -1070 -210 0 -210 0 -3 1060 c-1 583 0 1066 3 1073 3 10 52 12 212 10 l208 -3 0 -1070z m2540 880 l0 -190 -267 -3 c-148 -1 -269 -3 -270 -5 -2 -1 -5 -396 -8 -877 l-5 -875 -210 0 -210 0 -5 875 -5 875 -270 5 -270 5 -3 180 c-1 98 0 185 2 192 4 11 152 13 763 11 l758 -3 0 -190z m1663 183 c8 -8 12 -63 12 -183 0 -120 -4 -175 -12 -183 -9 -9 -139 -12 -524 -12 l-512 0 -6 -22 c-12 -46 -7 -413 7 -431 11 -15 55 -17 487 -19 l475 -3 3 -197 2 -198 -474 0 c-418 0 -476 -2 -490 -16 -14 -13 -16 -48 -16 -230 0 -129 4 -223 10 -235 10 -18 27 -19 524 -19 459 0 515 -2 520 -16 3 -9 6 -91 6 -184 0 -131 -3 -170 -14 -179 -10 -9 -175 -11 -627 -9 l-614 3 -54 30 c-61 34 -120 97 -153 163 l-23 47 -3 760 c-1 503 1 777 8 811 33 160 139 280 282 318 72 20 1167 23 1186 4z m1706 -4 c12 -31 7 -349 -6 -362 -9 -9 -114 -12 -413 -12 l-401 0 -55 -27 c-65 -34 -112 -92 -136 -171 -16 -51 -18 -107 -18 -527 l0 -470 31 -54 c23 -42 43 -62 85 -85 l54 -31 425 -3 c316 -2 426 -6 432 -15 4 -7 8 -89 8 -183 0 -137 -3 -174 -14 -183 -11 -9 -129 -11 -468 -9 l-453 3 -95 33 c-204 70 -344 213 -422 432 -22 64 -23 73 -26 545 -3 513 1 591 43 724 44 137 170 274 321 346 126 62 142 63 645 64 408 1 458 -1 463 -15z m680 0 c3 -9 6 -204 6 -435 l0 -419 380 0 c209 0 381 1 382 3 1 1 5 196 8 432 l5 430 210 0 210 0 0 -1070 0 -1070 -210 0 -210 0 -5 433 c-4 370 -7 434 -20 442 -16 11 -690 14 -727 4 l-23 -6 0 -427 c0 -319 -3 -430 -12 -439 -9 -9 -69 -12 -208 -12 -139 0 -199 3 -208 12 -9 9 -12 260 -12 1068 0 581 3 1060 7 1063 3 4 100 7 214 7 179 0 208 -2 213 -16z m-5546 -1012 c9 -7 12 -52 10 -193 l-3 -184 -384 -3 c-275 -1 -388 1 -397 9 -19 15 -20 349 -2 367 14 14 754 17 776 4z m-5057 -221 l29 -29 0 -427 0 -427 -29 -29 -29 -29 -427 0 -427 0 -29 29 -29 29 0 427 0 427 29 29 29 29 427 0 427 0 29 -29z m1240 0 l29 -29 0 -427 0 -427 -29 -29 -29 -29 -427 0 -427 0 -29 29 -29 29 0 427 0 427 29 29 29 29 427 0 427 0 29 -29z m-106 -1260 c47 -22 89 -64 104 -104 8 -19 11 -331 11 -978 0 -856 -2 -953 -16 -982 -23 -45 -44 -66 -86 -88 -36 -18 -75 -19 -987 -19 -647 0 -959 3 -978 11 -40 15 -82 57 -104 104 -18 38 -19 86 -19 979 0 935 0 940 21 983 23 47 70 89 116 103 15 4 449 9 963 9 890 1 937 0 975 -18z m1869 -9 c126 -47 218 -124 274 -230 48 -89 62 -159 62 -302 0 -208 -39 -341 -126 -427 l-53 -53 62 -71 c132 -149 159 -199 178 -324 10 -70 -4 -257 -26 -353 -36 -153 -142 -295 -267 -355 -118 -57 -131 -57 -800 -55 l-613 3 -3 1084 c-1 812 1 1087 10 1098 9 12 109 13 627 11 610 -3 617 -4 675 -26z m2544 16 c8 -8 12 -62 12 -178 0 -116 -4 -170 -12 -178 -8 -8 -62 -12 -178 -12 -116 0 -170 4 -178 12 -17 17 -17 339 0 356 17 17 339 17 356 0z m612 -7 c12 -24 14 -2149 2 -2169 -7 -9 -51 -12 -188 -10 l-179 3 -3 1085 c-1 597 0 1091 3 1098 3 9 49 12 179 12 163 0 176 -1 186 -19z m1689 5 c8 -10 10 -304 9 -1097 l-3 -1084 -530 -3 c-459 -2 -537 0 -585 14 -171 49 -322 238 -387 483 -21 77 -27 127 -30 257 -14 449 115 730 375 816 62 20 92 22 422 27 l355 6 3 284 c1 189 6 289 13 298 17 19 342 19 358 -1z m609 -170 c2 -137 -1 -181 -10 -188 -15 -9 -319 -11 -342 -2 -14 5 -16 31 -16 183 0 98 3 181 7 185 4 3 86 5 182 4 l176 -3 3 -179z m-4490 -428 c9 -9 12 -148 12 -564 l0 -552 25 -31 c14 -16 52 -40 83 -53 49 -19 76 -22 192 -23 149 0 212 15 273 66 l32 27 3 563 c2 431 5 565 15 571 14 9 318 11 341 2 14 -6 16 -72 16 -653 l0 -646 -24 -50 c-84 -181 -412 -290 -774 -257 -276 25 -468 119 -536 262 -21 44 -21 57 -24 677 -2 438 0 639 8 653 10 19 21 20 178 20 117 0 172 -4 180 -12z m1581 -2 c8 -10 10 -226 9 -797 l-3 -784 -185 0 -185 0 -3 784 c-1 571 1 787 9 797 9 11 50 14 179 14 129 0 170 -3 179 -14z m2899 6 c10 -7 12 -173 10 -798 l-3 -789 -180 0 -180 0 -3 789 c-2 625 0 791 10 798 7 4 85 8 173 8 88 0 166 -4 173 -8z m1242 -2 c151 -24 310 -139 384 -279 66 -125 66 -135 64 -753 l-3 -553 -185 0 -185 0 -5 550 c-6 607 -3 582 -70 639 -56 47 -113 56 -350 56 -217 0 -217 0 -244 -25 l-26 -24 0 -574 c0 -568 0 -575 -21 -601 l-21 -27 -145 3 -146 3 -21 28 c-21 28 -21 36 -24 685 -2 452 0 673 8 708 17 81 81 144 165 165 46 11 752 10 825 -1z m2043 -1 c21 -5 52 -23 70 -39 l32 -28 0 -904 0 -904 -39 -78 c-46 -94 -130 -182 -214 -223 l-57 -28 -514 -3 c-409 -2 -516 0 -523 10 -9 15 -11 289 -2 312 5 14 54 16 439 16 263 0 444 4 460 10 42 16 65 79 65 183 l0 87 -271 0 c-163 0 -289 4 -317 11 -26 6 -89 31 -141 56 -191 91 -333 284 -377 509 -22 120 -19 446 6 551 37 157 131 297 249 372 62 40 166 79 243 90 92 13 844 13 891 0z"/>
        <path d="M14205 11588 c-3 -7 -4 -115 -3 -238 l3 -225 305 -3 c212 -2 318 1 348 9 90 25 125 90 124 234 0 117 -24 164 -107 208 -38 21 -55 22 -353 25 -253 3 -313 1 -317 -10z"/>
        <path d="M14204 10687 c-2 -7 -3 -118 -2 -247 l3 -235 364 -3 363 -2 43 42 c52 52 75 121 75 223 0 82 -12 125 -48 174 -44 60 -55 61 -442 61 -274 0 -352 -3 -356 -13z"/>
        <path d="M19014 11005 c-79 -17 -116 -36 -164 -86 -76 -78 -114 -251 -93 -418 14 -106 40 -172 91 -224 83 -87 150 -102 452 -102 l235 0 0 420 0 420 -230 2 c-161 1 -248 -2 -291 -12z"/>
        <path d="M22978 11006 c-89 -32 -137 -95 -164 -214 -20 -92 -15 -309 10 -388 55 -175 211 -241 556 -232 l125 3 0 420 0 420 -245 2 c-184 2 -254 -1 -282 -11z"/>
    </g>
</svg>
