<svg width="357" height="87" xmlns="http://www.w3.org/2000/svg">
    <g transform="translate(-214 -244)" fill="#fff">
        <path d="M283.924 329.85 284.383 329.912 285.57 329.973 283.924 329.85Z"/>
        <path d="M283.797 329.833 283.862 329.845 283.924 329.85 283.797 329.833Z"/>
        <path d="M279 328.301 283.194 329.751 283.797 329.833 282.186 329.518 280.56 329 279 328.301Z" />
        <path d="M314.952 247.962 305.559 247.962 310.211 248.66 314.212 251.091 316.88 254.734 317.989 259.105 317.313 263.723 317.329 263.73 299.902 311.475 300.261 316.453 299.084 321.135 296.531 325.165 292.762 328.183 295.064 326.658 298.756 322.405 320.075 264.808 320.967 260.166 320.381 255.641 318.466 251.545 315.364 248.191 314.952 247.962Z" />
        <path d="M306.566 245 302.027 245.583 297.917 247.493 294.55 250.585 292.24 254.712 285.767 272.44 287.36 276.803 294.767 256.52 294.843 256.255 294.928 255.986 295.02 255.72 297.475 251.718 301.151 249.057 305.559 247.962 314.952 247.962 311.223 245.889 306.566 245Z" />
        <path d="M279.318 327.693 283.328 329.751 285.811 329.979 285.817 329.315 284.151 329.194 282.494 328.879 280.879 328.378 279.318 327.693Z"/>
        <path d="M310.667 248.592 306.664 248.592 307.677 248.636 308.681 248.766 314.573 251.624 317.197 255.139 318.293 259.356 317.632 263.803 299.97 311.273 299.995 311.37 300.348 316.188 299.185 320.733 296.661 324.648 292.93 327.581 293.257 328.162 297.794 324.577 300.759 319.608 301.61 317.324 300.887 317.324 301.055 315.846 301.079 314.345 300.955 312.831 300.678 311.315 318.288 264.034 318.389 263.712 318.955 259.082 317.743 254.716 314.975 251.083 310.878 248.657 310.667 248.592Z"/>
        <path d="M311.112 245.664 306.659 245.664 307.934 245.718 309.198 245.881 314.282 247.751 318.469 251.496 320.904 256.598 321.308 259.356 321.151 262.138 320.431 264.877 300.887 317.324 301.61 317.324 321.069 265.105 321.824 262.239 321.988 259.328 321.564 256.442 319.015 251.103 314.635 247.184 311.903 245.908 311.112 245.664Z"/>
        <path d="M306.659 245 302.006 245.711 297.868 247.718 294.523 250.831 292.248 254.86 285.65 272.564 287.626 277.861 288.348 275.922 287.626 275.922 286.374 272.564 292.886 255.087 295.061 251.236 298.258 248.261 302.212 246.343 306.659 245.664 311.112 245.664 310.62 245.512 309.316 245.228 307.994 245.057 306.659 245Z"/>
        <path d="M306.664 247.929 299.589 250.116 295.061 255.864 294.806 256.654 287.626 275.922 288.348 275.922 295.451 256.859 295.527 256.598 295.612 256.341 299.978 250.659 306.664 248.592 310.667 248.592 309.847 248.34 308.799 248.112 307.736 247.975 306.664 247.929Z"/>
        <path d="M264.161 314.242 263.193 309.362 260.541 302.122 260.541 315.272 260.215 317.593 258.29 321.741 255.092 324.674 251.242 326.12 249.323 326.287 245.779 325.716 240.036 321.609 238.138 318.088 218.368 264.097 218.276 263.803 217.631 259.354 218.71 255.136 221.29 251.622 225.149 249.281 229.062 248.592 232.54 249.132 238.134 253.026 240.016 256.624 240.1 256.911 259.464 309.783 260.541 315.272 260.541 302.122 243.23 254.86 240.993 250.831 237.704 247.718 233.638 245.711 229.066 245 227.754 245.057 221.228 247.184 216.923 251.103 214.417 256.441 214 259.327 214.162 262.238 234.864 319.606 237.193 323.848 240.579 327.124 244.744 329.237 249.406 329.987 250.676 329.931 258.586 326.747 258.998 326.287 261.712 323.262 263.619 318.984 264.161 314.242Z"/>
        <path d="M300.96 315.346 300.761 312.334 299.98 309.362 297.329 302.126 297.329 315.272 297.002 317.593 295.078 321.741 291.879 324.674 288.031 326.12 286.112 326.287 282.565 325.716 279.398 324.109 276.823 321.619 275.055 318.402 274.923 318.012 274.899 318.012 255.162 264.117 255.175 264.111 255.064 263.803 254.418 259.354 255.497 255.136 258.078 251.622 261.937 249.281 265.85 248.592 269.326 249.132 274.919 253.025 276.804 256.623 276.888 256.911 296.262 309.795 297.329 315.272 297.329 302.126 280.017 254.86 277.78 250.831 275.414 248.592 274.491 247.718 270.424 245.711 265.851 245 264.54 245.057 258.013 247.184 253.71 251.103 251.206 256.441 250.79 259.327 250.951 262.238 271.651 319.606 273.981 323.848 277.368 327.124 281.533 329.237 286.193 329.987 287.462 329.931 293.857 327.822 298.133 323.817 300.579 318.324 300.96 315.346Z"/>
        <path d="M341.936 280 336 280 336 306.952 341.936 306.952 341.936 280Z"/>
        <path d="M369.951 280 364.479 280 364.403 298.746 353.186 280 347 280 347 306.952 352.448 306.952 352.573 287.695 364.052 306.952 369.951 306.952 369.951 280Z"/>
        <path d="M395.56 279 373 279 373 283.969 381.368 283.969 381.368 306.933 387.104 306.933 387.104 283.969 395.56 283.969 395.56 279Z"/>
        <path d="M419.983 302.145 404.631 302.145 404.631 294.759 418.141 294.759 418.141 289.79 404.631 289.79 404.631 284.016 419.369 284.016 419.369 279.047 398.898 279.047 398.898 284.016 398.898 289.79 398.898 294.759 398.898 302.145 398.898 306.98 419.983 306.98 419.983 302.145Z"/>
        <path d="M444.564 302.471 430.719 302.471 430.719 279.746 425 279.746 425 302.471 425 307.227 444.564 307.227 444.564 302.471Z"/>
        <path d="M467.055 279.746 461.074 279.746 454.972 300.568 449.033 279.746 442.866 279.746 452.157 307.244 457.674 307.244 467.055 279.746Z"/>
        <path d="M475.966 279.748 470.246 279.748 470.246 307.244 475.966 307.244 475.966 279.748Z"/>
        <path d="M502.721 298.935 501.476 294.746 497.084 292.006 487.814 289.708 487.178 289.474 486.107 288.709 485.76 287.997 485.76 287.037 488.837 283.92 490.627 283.739 492.136 283.842 495.652 285.874 496.291 287.911 501.815 287.911 500.565 283.47 496.025 279.798 491.046 279 488.267 279.194 483.915 280.747 480.876 284.545 480.39 287.454 480.429 288.239 481.846 292.173 485.641 294.523 492.153 296.236 493.678 296.647 497.205 298.892 497.205 299.647 494.551 302.82 491.387 303.2 489.833 303.097 486.077 300.941 485.5 298.734 479.976 298.734 481.173 303.396 486.022 307.121 491.813 307.946 493.556 307.859 498.185 306.538 501.586 303.504 502.436 301.411 502.721 298.935Z"/>
        <path d="M512.32 279.748 506.595 279.748 506.595 307.244 512.32 307.244 512.32 279.748Z"/>
        <path d="M543.075 293.47 542.408 288.18 540.406 283.966 540.299 283.841 539.29 282.658 537.992 281.543 537.353 281.144 537.353 293.47 537.19 295.915 535.89 299.786 532.548 302.631 529.829 303.106 528.398 302.986 523.735 299.751 522.456 295.898 522.297 293.47 522.46 291.024 523.759 287.16 527.1 284.315 529.829 283.841 531.255 283.961 535.912 287.195 537.193 291.041 537.353 293.47 537.353 281.144 533.636 279.494 529.834 279.001 528.542 279.058 523.054 280.651 519.17 283.999 517.223 288.149 516.574 293.47 516.741 296.255 518.079 301.014 520.361 304.29 524.806 307.079 529.834 307.947 531.119 307.89 536.611 306.3 540.345 303.106 540.485 302.94 541.618 301.011 542.427 298.793 542.913 296.278 543.075 293.47Z"/>
        <path d="M569.987 279.746 564.624 279.746 564.544 298.872 553.535 279.746 547.454 279.746 547.454 307.244 552.806 307.244 552.923 287.597 564.205 307.244 569.987 307.244 569.987 279.746Z"/>
    </g>
</svg>
