<svg version="1.1" xml:space="preserve" viewBox="0 0 481.79547 354.26666" xmlns="http://www.w3.org/2000/svg">
    <g transform="matrix(1.3333333,0,0,-1.3333333,-0.00450666,354.26666) scale(0.7 0.7) translate(80, 60)" fill="#fff">
        <g id="g18" transform="translate(49.33, 239.69)">
          <path d="m 0,0 c 0.25,-4.82 -0.96,-9.63 -1.93,-14.44 -0.45,-2.24 0.07,-3.41 1.91,-4.86 8.01,-6.34 15.8,-12.98 23.69,-19.47 7.27,-5.98 14.6,-11.88 21.85,-17.89 3.16,-2.62 6.8,-3.93 10.76,-4.71 8.88,-1.76 17.74,-1.62 26.61,0 0.57,0.1 1.21,0.39 1.61,0.8 3.07,3.17 6.12,6.36 9.13,9.59 3.29,3.53 6.69,6.95 10.88,9.43 2.7,1.6 5.65,2.43 8.76,2.72 5.47,0.51 10.96,0.86 16.41,1.56 3.7,0.47 6.89,2.25 9.42,5.08 3.28,3.67 6.57,7.33 9.86,11 0.68,0.76 0.95,1.61 0.8,2.63 -0.72,4.7 -1.43,9.41 -2.12,14.11 -0.37,2.5 -0.84,5 -0.98,7.52 -0.26,4.51 1.72,8.32 4.47,11.65 5.65,6.87 13.06,10.2 21.94,10.48 5.71,0.18 10.96,-1.11 15.55,-4.53 3.52,-2.62 5.76,-6.28 7.42,-10.25 1.61,-3.86 3.01,-7.81 4.41,-11.75 0.36,-1.01 0.81,-1.49 1.93,-1.67 8.81,-1.39 17.26,-4.18 25.75,-6.81 2.35,-0.73 4.76,-1.28 7.06,-2.15 3.84,-1.46 7.47,-0.69 11.01,0.83 5.33,2.28 9.09,6.34 11.83,11.3 1.52,2.75 2.79,5.68 3.81,8.65 3.17,9.23 9.77,14.58 19.04,16.51 8.14,1.7 15.81,0.39 22.22,-5.47 6.85,-6.26 9.66,-14.14 8.81,-23.23 -0.78,-8.43 -4.51,-15.21 -12.27,-19.32 -8.8,-4.67 -17.46,-4.19 -26.07,0.57 -5.11,2.83 -9.74,6.31 -14.31,9.91 -0.64,0.51 -1.13,0.55 -1.87,0.23 -5.54,-2.45 -11.11,-4.84 -16.66,-7.29 -0.4,-0.18 -0.89,-0.72 -0.9,-1.1 -0.2,-7.85 -0.41,-15.7 -0.45,-23.55 -0.01,-2.78 0.39,-5.57 0.66,-8.35 0.04,-0.44 0.3,-0.92 0.59,-1.26 2.1,-2.37 4.23,-4.7 6.35,-7.04 2.64,-2.91 5.4,-5.73 7.89,-8.77 2.36,-2.88 3.99,-6.24 4.29,-10 0.63,-8.06 -1.82,-15 -8,-20.41 -4.39,-3.84 -9.52,-5.94 -15.31,-6.68 -11.39,-1.45 -25.9,7.29 -27.26,22.05 -0.98,10.6 3.24,18.39 12.28,23.71 3.67,2.16 7.44,4.16 11.18,6.2 0.65,0.36 0.91,0.74 0.92,1.52 0.01,3.26 0.12,6.53 0.2,9.79 0.07,2.86 0.3,5.73 0.17,8.58 -0.19,4.04 -0.64,8.07 -1.04,12.1 -0.06,0.58 -0.35,1.2 -0.7,1.68 -3.33,4.63 -7.98,7.39 -13.34,8.84 -3.63,0.98 -7.4,1.49 -11.14,1.98 -2.78,0.36 -5.41,-0.55 -7.78,-1.98 -2.13,-1.29 -4.14,-2.79 -6.2,-4.2 -2.43,-1.66 -4.82,-3.37 -7.28,-4.98 -2.91,-1.9 -6.2,-2.7 -9.61,-2.88 -3.49,-0.18 -6.98,-0.17 -10.48,-0.23 -3.51,-0.06 -7.02,-0.2 -10.24,-1.75 -1.53,-0.74 -3.07,-1.67 -4.27,-2.86 -3.89,-3.86 -7.6,-7.89 -11.41,-11.83 -0.57,-0.59 -0.57,-1.01 -0.14,-1.69 2.8,-4.45 5.68,-8.85 8.27,-13.42 2.41,-4.24 3.87,-8.87 3.42,-13.83 -0.83,-9.22 -5.06,-16.54 -12.74,-21.79 -5.3,-3.62 -11.2,-5.56 -17.58,-6.2 -3.89,-0.39 -7.67,0.02 -11.46,0.78 -5.84,1.18 -10.28,4.5 -13.68,9.19 -2.72,3.74 -5.06,7.75 -7.63,11.6 -1.47,2.2 -3.04,4.33 -4.59,6.47 -0.22,0.3 -0.61,0.61 -0.94,0.65 -5.15,0.55 -10.3,1.21 -15.46,1.51 -3.76,0.22 -7.48,-0.37 -10.94,-2.07 -2.29,-1.12 -4.23,-2.68 -5.64,-4.82 -5.43,-8.26 -11.94,-15.62 -19.19,-22.26 -8.57,-7.85 -17.43,-15.38 -26.17,-23.04 -1.71,-1.5 -3.4,-3.04 -5.18,-4.47 -0.8,-0.64 -0.87,-1.38 -0.79,-2.23 0.5,-5.7 1.27,-11.4 1.45,-17.11 0.17,-5.49 -1.05,-10.73 -4.83,-15.08 -4.41,-5.06 -10.01,-7.87 -16.58,-8.78 -7.47,-1.03 -14.21,0.76 -20.01,5.69 -4.7,3.99 -7.21,9.2 -8.15,15.21 -0.27,1.73 -0.55,3.51 -0.43,5.24 0.54,7.62 2.89,14.51 9,19.52 4.05,3.32 8.69,5.69 14.09,5.42 3.64,-0.18 7.24,-1.03 10.86,-1.57 2.28,-0.34 4.55,-0.82 6.85,-0.96 4,-0.25 7.37,1.18 10.4,3.88 6.89,6.14 13.99,12.06 20.92,18.16 8.14,7.16 15.76,14.82 22.07,23.69 2.23,3.13 2.24,5.72 -0.37,8.57 -2.05,2.24 -4.34,4.3 -6.68,6.24 -10.81,8.91 -21.68,17.77 -32.54,26.62 -1.77,1.44 -3.61,2.78 -5.46,4.12 -3.06,2.21 -6.49,3.44 -10.29,3.39 -5.35,-0.07 -10.69,-0.33 -16.04,-0.33 -2.37,0 -4.78,0.26 -7.11,0.71 -5.31,1.04 -8.87,4.56 -11.65,8.93 -5.97,9.32 -5.58,22.64 0.85,31.34 4.02,5.44 9.62,8.2 16.21,8.97 9.88,1.15 20.09,-4.18 24.93,-12.86 2.49,-4.47 3.09,-6.91 3.09,-12.69 z"  id="path20" />
        </g>
        <g id="g22" transform="translate(140.74,240.14)">
          <path d="m 0,0 c 0,-4.97 -0.4,-9.34 -2.57,-13.35 -3.56,-6.56 -9.33,-10.2 -16.29,-12.22 -3.63,-1.05 -7.38,-1.45 -11.12,-1.11 -14.47,1.31 -22.26,11.56 -23.45,22.5 -1.12,10.33 4.52,21.48 13.49,26 3.2,1.61 6.61,2.47 10.19,2.97 9.65,1.34 21.93,-4.44 27.26,-14.73 C -0.78,6.75 0.29,3.26 0.01,0 Z"  id="path24" />
        </g>
        <g id="g26" transform="translate(248.84,97.06)">
          <path d="m 0,0 c -0.03,-14.17 -9.81,-24.07 -23.08,-25.15 -8.19,-0.66 -15.42,1.49 -21.16,7.59 -9.29,9.88 -9.9,25.29 -1.48,35.39 2.25,2.7 5.01,4.72 8.28,6.05 2.48,1 4.86,2.4 7.42,2.99 7.39,1.72 13.97,-0.34 19.7,-5.15 5.68,-4.77 9.14,-10.86 10.28,-18.21 0.18,-1.15 0.02,-2.35 0.02,-3.52 z"  id="path28" />
        </g>
        <g id="g30" transform="translate(115.03,124.08)">
          <path d="m 0,0 c 6.97,-0.04 12.78,-3.13 17.65,-8.12 5.36,-5.49 8.58,-12.06 8.48,-19.85 -0.16,-11.72 -6.62,-19.48 -17.15,-22.64 -3.4,-1.02 -6.89,-1.6 -10.43,-1.31 -11.78,0.95 -21.75,6.45 -24.6,20.59 -1.48,7.35 0.73,14.07 5.12,20.03 4.38,5.96 10.25,9.7 17.54,11.1 1.04,0.2 2.12,0.13 3.4,0.2 z"  id="path32" />
        </g>
        <g id="g34" transform="translate(311.82,46.64)">
          <path d="m 0,0 c 1.58,0.43 2.38,-0.11 3.12,-1.4 5.5,-9.68 11.1,-19.31 16.66,-28.95 0.18,-0.32 0.38,-0.63 0.64,-1.06 0.28,0.45 0.52,0.83 0.74,1.22 5.59,9.76 11.2,19.5 16.72,29.3 0.67,1.19 1.51,1.05 2.46,0.98 0.18,-0.01 0.43,-0.45 0.48,-0.72 2.37,-12.86 4.73,-25.72 7.09,-38.58 0.36,-1.98 0.72,-3.96 1.1,-6.01 h -7.68 c -1.68,9.49 -3.36,18.95 -5.1,28.76 -5.35,-9.38 -10.54,-18.47 -15.8,-27.71 -5.45,9.22 -10.83,18.32 -16.38,27.71 -1.46,-9.74 -2.87,-19.18 -4.3,-28.72 h -7.7 c 2.65,15.09 5.3,30.16 7.94,45.19 z" />
        </g>
        <g id="g38" transform="translate(279.36,23.83)">
          <path d="m 0,0 c 0,0.96 0.11,1.93 -0.02,2.87 -0.82,5.93 -3.7,10.52 -9.33,12.81 -5.79,2.35 -11.54,1.93 -16.57,-2.04 -5.58,-4.4 -6.84,-10.52 -5.79,-17.17 2.04,-12.86 15.85,-16.76 24.79,-10.86 C -1.83,-11.03 0.27,-6.03 0,0 Z M -15.79,23.58 C -7.5,23.78 -0.81,20.71 3.91,13.8 6.55,9.94 7.67,5.59 7.77,0.9 7.87,-3.52 7.28,-7.77 5.19,-11.69 1.26,-19.08 -5.05,-22.84 -13.29,-23.67 c -4.33,-0.44 -8.5,0.11 -12.48,1.73 -6.37,2.59 -10.64,7.26 -12.65,13.83 -2.43,7.93 -1.74,15.59 3.08,22.49 4.26,6.1 10.35,9.05 17.78,9.21 0.59,0.01 1.18,0 1.77,0 z" />
        </g>
        <g id="g42" transform="translate(164.88,23.78)">
          <path d="m 0,0 c -0.1,1.32 -0.08,2.65 -0.33,3.94 -1.14,5.95 -4.41,10.31 -10.23,12.19 -6.06,1.95 -11.84,1.15 -16.62,-3.4 -4.52,-4.3 -5.5,-9.8 -4.74,-15.73 1.65,-12.9 15.5,-17.44 24.82,-11.37 5.11,3.33 7.19,8.34 7.1,14.37 z m -15.93,23.63 c 7.83,0.21 14.28,-2.57 19.08,-8.87 6.93,-9.09 6.82,-27.07 -5.96,-35 -2.99,-1.85 -6.26,-2.82 -9.73,-3.28 -5.74,-0.77 -11.2,0.09 -16.19,3.02 -6.47,3.79 -9.89,9.67 -10.84,17.02 -0.77,5.89 0.08,11.54 3.25,16.63 4.29,6.9 10.65,10.31 18.75,10.48 0.55,0.01 1.1,0 1.65,0 z" />
        </g>
        <g id="g46" transform="translate(40.37,23.85)">
          <path d="m 0,0 c -0.1,1.28 -0.09,2.58 -0.33,3.83 -1.25,6.4 -4.85,10.91 -11.25,12.53 -6.58,1.66 -12.52,0.27 -16.99,-5.23 -3.46,-4.26 -4.07,-9.28 -3.3,-14.51 0.85,-5.76 3.84,-10.11 9.28,-12.36 5.68,-2.35 11.27,-1.86 16.27,1.84 4.6,3.41 6.43,8.24 6.33,13.9 z M -16,23.66 C -8.11,23.8 -1.6,21 3.17,14.63 6.94,9.59 8.09,3.77 7.6,-2.38 7.02,-9.8 3.84,-15.83 -2.42,-20.04 c -3.08,-2.07 -6.55,-3.09 -10.21,-3.56 -5.78,-0.74 -11.27,0.13 -16.28,3.12 -6.17,3.69 -9.62,9.3 -10.58,16.36 -1.19,8.74 0.82,16.49 7.68,22.5 3.26,2.86 7.12,4.49 11.45,4.96 1.45,0.16 2.91,0.21 4.37,0.32 z" />
        </g>
        <g id="g50" transform="translate(66.63,1.44)">
          <path d="m 0,0 v 45.23 c 1.56,0.13 2.9,0.29 4.24,-1.13 9.09,-9.68 18.29,-19.25 27.45,-28.87 0.24,-0.26 0.4,-0.59 0.6,-0.89 0.1,0.07 0.21,0.14 0.31,0.21 v 30.69 h 7.29 v -1.1 c 0,-14.31 -0.01,-28.62 0.03,-42.93 0,-1.14 -0.34,-1.41 -1.44,-1.42 C 37.4,-0.22 36.7,0.1 35.96,0.89 26.73,10.63 17.45,20.34 8.18,30.05 7.93,30.31 7.73,30.62 7.25,30.78 V 0 h -7.26 z"  id="path52" />
        </g>
        <g id="g54" transform="translate(230.28,1.37)">
          <path d="m 0,0 c -3.31,0 -6.35,-0.02 -9.39,0.03 -0.33,0 -0.73,0.32 -0.97,0.6 -5.31,6.11 -10.61,12.22 -15.88,18.36 -0.5,0.59 -1.01,0.84 -1.78,0.8 -1.24,-0.06 -2.49,-0.02 -3.87,-0.02 V 0.05 h -7.22 v 45.28 h 7.15 V 25.77 c 1.44,0 2.79,-0.05 4.13,0.03 0.32,0.02 0.67,0.41 0.92,0.7 5.08,5.97 10.16,11.93 15.2,17.93 0.61,0.72 1.21,1.01 2.14,0.98 2.34,-0.07 4.68,-0.02 7.26,-0.02 C -8.59,38.04 -14.72,30.87 -20.9,23.63 -13.97,15.79 -7.07,7.99 0,0 Z" />
        </g>
    </g>
</svg>
