<svg viewBox="0 0 624.35809 150.48866" xmlns="http://www.w3.org/2000/svg" fill="#fff">
  <g transform="translate(-90,-24)">
    <path d="m 295.8703,142.7622 h 19.6323 v -28.2448 c 0,-17.3531 6.5855,-25.2052 17.7314,-25.2052 3.1675,0 5.827,0.6324 7.726,1.2666 V 71.833 c -1.3928,-0.6343 -4.4324,-1.2667 -6.8396,-1.2667 -7.5981,0 -13.6791,2.7856 -18.7458,9.245 0,-1.8991 0.128,-3.672 0.128,-5.0648 V 71.833 h -19.6323 z m 91.0678,-72.7021 c -22.2917,0 -38.6322,13.9313 -38.6322,37.2375 0,25.0791 16.3405,37.2375 39.2646,37.2375 12.0342,0 20.8989,-2.6594 26.852,-6.0792 v -17.4791 c -5.0666,3.4198 -14.4395,6.4594 -24.5709,6.4594 -11.7801,0 -19.126,-3.2937 -22.0395,-12.0324 h 14.5656 c 21.7854,0 34.8322,-5.1927 34.8322,-20.8989 0,-15.5801 -13.299,-24.4448 -30.2718,-24.4448 z m -0.1261,16.3386 c 8.2323,0 12.0323,3.7999 12.0323,8.4864 0,4.9387 -4.0541,6.7116 -13.5531,6.7116 h -18.2395 c 2.027,-10.1314 10.1333,-15.198 19.7603,-15.198 z m 41.0375,21.2791 c 0,21.2791 13.6792,36.8573 37.8718,36.8573 10.5134,0 18.2395,-2.6594 22.6719,-6.0792 v -17.9854 c -3.4198,2.9135 -10.7657,6.2053 -20.3927,6.2053 -12.0323,0 -20.6448,-5.9531 -20.6448,-19.5043 0,-13.3009 9.3729,-19.254 20.5187,-19.254 9.627,0 16.8468,3.2937 20.2666,6.2072 V 75.8852 c -4.9406,-3.1657 -11.7801,-5.8251 -21.9134,-5.8251 -23.6845,0 -38.3781,15.0719 -38.3781,37.6177 z"/>
    <path d="m 576.1691,107.0435 c 0,-24.1907 -17.7313,-36.9834 -38.6303,-36.9834 -20.8989,0 -38.6322,12.7927 -38.6322,37.1114 0,24.9511 17.7333,37.3636 38.6322,37.3636 20.899,0 38.6303,-12.9188 38.6303,-37.4916 z m -19.5043,0 c 0,13.0468 -8.9927,19.8864 -19.126,19.8864 -10.5134,0 -19.126,-6.9657 -19.126,-19.7584 0,-12.9207 8.8666,-19.5062 19.126,-19.5062 10.1333,0 19.126,6.2053 19.126,19.3782 z m 56.1113,-18.7458 h 18.7458 V 71.833 H 612.7761 V 54.0998 H 593.27 V 71.833 h -8.9928 v 16.4647 h 8.9928 v 27.3584 c 0,19.38 8.2323,28.3728 26.0916,28.3728 5.1928,0 9.7531,-1.0126 12.1603,-2.5334 v -16.0863 c -1.9009,0.6342 -4.4342,1.2666 -7.3477,1.2666 -8.1062,0 -11.3981,-3.4198 -11.3981,-11.3981 z m 32.9313,5.827 c 7.6,-3.9261 17.099,-6.5855 26.0917,-6.5855 9.627,0 14.8197,3.672 14.8197,12.4125 h -13.4269 c -20.0125,0 -32.2989,6.3315 -32.2989,23.0521 0,13.5512 9.3729,21.0251 24.0665,21.0251 10.2594,0 18.4917,-3.4198 23.0521,-9.1189 1.8991,5.445 6.4594,9.1189 15.0719,9.1189 4.4343,0 7.6,-0.7604 10.1333,-1.8991 v -14.5675 c -0.8865,0.128 -1.7729,0.2541 -2.6594,0.2541 -4.0541,0 -5.9531,-2.1532 -5.827,-6.3333 l 0.3802,-20.2647 c 0.3801,-20.6467 -9.4991,-30.6521 -31.6647,-30.6521 -9.753,0 -20.6467,2.4054 -27.7385,5.573 z m 24.4449,33.8178 c -5.1928,0 -9.6252,-2.0271 -9.6252,-6.9657 0,-5.1928 4.4324,-7.8522 13.4251,-7.8522 h 12.6666 v 0.2522 c 0,9.627 -7.4738,14.5657 -16.4665,14.5657 z"/>
  </g>
  <path d="m 113.21639,61.8879 c -0.4966,0.8354 -0.2221,1.503 -0.1447,1.788 0.08,0.2949 0.9225,1.8676 1.1186,2.2433 0.7117,1.3635 1.3113,2.6286 2.0303,4.0902 l 12.2851,24.6798 c 2.2976,-0.7932 4.5648,-7.0167 6.3718,-10.3466 1.576,-2.9044 5.2531,-8.9744 5.5935,-11.8638 -4.1875,-1.7029 -8.6796,-4.0681 -13.5868,-5.923 -2.111,-0.7979 -12.5791,-4.834 -13.6678,-4.6679 z"/>
  <path d="m 96.070286,96.4124 1.8032,2.8894 c 4.641304,-0.0932 25.378204,-0.9097 28.092204,-2.3031 1.8569,-1.7035 -8.4012,-20.3866 -9.9474,-23.4584 l -4.1793,-8.6021 c -3.9775,-7.4669 -13.816804,26.5426 -15.768704,31.4742 z"/>
  <path d="m 88.550686,65.8394 c 1.3838,-1.6229 0.4322,-5.0995 0.2148,-7.2372 -0.4957,-4.8729 -1.3912,-21.273 -2.8806,-23.1096 -2.8646,0.4635 -3.8828,4.7975 -6.2402,9.7421 l -8.0848,16.406 c -1.9367,4.5055 1.802,3.5865 10.5263,4.6154 2.8172,0.3323 5.2116,1.1719 6.4645,-0.4167 z"/>
  <path d="m 98.265386,101.4412 c -0.179,2.1934 -1.1515,0.8954 4.463704,4.814 1.9696,1.3744 3.4736,2.4582 5.4704,3.9635 13.8029,10.4069 11.3238,9.3694 16.1708,-2.4934 1.2616,-3.0873 4.862,-8.2906 -0.1331,-8.4553 -2.492,-0.082 -24.592304,1.6585 -25.971804,2.1712 z" />
  <path d="m 9.3705856,60.3479 c 0.3982,1.4277 2.5298004,4.9873 3.5951004,6.3129 1.0201,1.2687 5.5621,2.1422 7.1524,1.8464 2.8259,-0.5254 12.5587,-4.0146 15.3487,-5.1431 0.0971,-0.0871 1.4828,-2.1251 0.2065,-3.8705 -0.4205,-0.5751 -2.1463,-2.0835 -2.8204,-2.7561 -1.9243,-1.9206 -3.9022,-3.555 -5.3761,-5.7056 -6.4355,2.4623 -14.1649,4.3438 -18.1062004,9.316 z"/>
  <path d="m 38.012886,66.4563 -1.3854,-1.2691 c -1.2275,0.0602 -15.8906,4.7168 -16.7359,5.249 -4.5406,2.8584 0.5067,7.6597 4.3379,13.8178 0.4968,0.7985 4.0737,6.3994 4.4825,6.6565 2.7952,1.7581 3.4222,-3.5747 4.2524,-6.3053 1.2512,-4.116 4.7269,-14.5163 5.0485,-18.1489 z"/>
  <path d="M 6.0544856,100.6677 14.140686,74.3098 c -1.436,-1.1658 -1.3506,-0.8745 -1.8876,-2.4694 L 1.5614856,71.9859 c -2.8469,12.8655 -2.05499996,19.6515 4.493,28.6818 z"/>
  <path d="m 94.214686,95.6112 c 1.1795,-1.565 8.539104,-21.6273 10.215404,-26.1563 3.9131,-10.5733 3.0669,-8.858 -7.539904,-3.6304 -3.0319,1.4941 -5.0159,3.3221 -4.9649,7.28 0.0384,2.9884 1.5717,20.9791 2.2894,22.5067 z"/>
  <path d="m 117.48919,120.3221 c -0.4318,-2.3546 -2.835,-3.3282 -4.416,-4.4224 -1.8229,-1.2618 -3.6082,-2.6352 -5.4774,-3.9666 -2.7057,-1.9275 -8.892004,-6.8301 -11.390604,-7.734 0.2617,3.5813 5.511104,15.8245 7.005604,19.9076 1.9666,5.3733 1.9255,5.824 6.6271,2.4 1.6786,-1.2225 6.9077,-4.4723 7.6513,-6.1846 z"/>
  <path d="m 47.567986,87.5483 c 2.6918,0.0469 13.0446,-3.6239 15.0883,-4.9877 l -9.6439,-8.217 c -2.3794,-1.857 -8.4593,-7.4758 -10.4281,-7.7514 -0.2287,2.6502 3.7634,19.1292 4.9837,20.9561 z"/>
  <path d="m 44.827386,64.7904 c 0.6664,2.0034 7.6789,6.8273 9.422,8.3097 1.624,1.3811 3.1925,2.6654 4.9018,3.9915 1.5607,1.2108 3.2701,3.0887 5.0764,3.8068 1.1453,-2.4373 1.4694,-5.8055 2.0874,-8.4355 0.8554,-3.6407 1.7851,-6.0034 -2.6157,-6.522 -3.4711,-0.4089 -16.8623,-2.3061 -18.8719,-1.1505 z"/>
  <path d="m 78.665786,116.6046 c 2.0188,-0.6791 1.2308,-0.4746 2.5515,-2.0665 l 6.4337,-8.0115 c 5.2282,-6.2702 -1.1261,-4.2374 -8.9731,-3.436 -17.6069,1.7981 -13.3694,0.1302 -2.9874,11.3151 1.4561,1.5688 0.8674,1.704 2.9753,2.1989 z"/>
  <path d="m 131.42089,125.7907 c 4.8054,-6.7131 2.6859,-12.9821 0.4701,-18.7045 -0.9759,-2.5206 -1.2531,-4.3666 -2.6916,-5.6498 -1.8149,1.7288 -5.0009,10.9439 -6.111,13.9209 -2.2567,6.0517 5.8162,9.6865 8.3325,10.4334 z"/>
  <path d="m 91.938186,96.3283 c 0.1586,-4.1509 -1.0054,-14.303 -1.437,-19.3762 l -0.435,-4.6755 c -0.6458,-2.5833 -0.0348,-0.6052 -0.6847,-1.6004 -1.4717,-0.158 -5.7664,2.9847 -7.456,4.0498 -3.4461,2.1724 -2.8851,4.725 -0.7537,7.5426 2.0209,2.6714 9.1417,13.0273 10.7664,14.0597 z"/>
  <path d="m 45.208386,88.6475 c 0.0941,-3.6519 -3.7612,-17.4425 -4.8774,-21.5263 -1.908,2.2455 -4.774,14.8628 -5.9753,18.8906 -0.9792,3.2833 -2.8693,8.1897 2.0599,6.5703 2.7752,-0.9119 6.9818,-2.3778 8.7928,-3.9346 z"/>
  <path d="m 95.552986,144.2713 c 6.311304,6.4344 10.258604,8.4669 17.666604,3.2613 -2.3449,-4.1217 -15.824204,-8.2601 -1.8193,-7.856 -1.604,-2.7914 -5.4738,-7.81 -8.5991,-4.6807 z"/>
  <path d="m 66.403586,101.9966 c 2.2443,1.0901 8.2811,-0.2457 11.1553,-0.5392 l 10.0026,-1.1368 c 5.744,-1.7128 -6.1449,-14.7187 -8.4943,-18.1623 -4.9263,-5.8025 -12.8702,19.6286 -12.6636,19.8383 z"/>
  <path d="m 131.57169,95.7195 16.4658,-7.4238 c -0.3471,-3.9899 -2.5331,-11.3905 -6.0658,-13.4872 -1.6951,2.3095 -10.3058,18.8825 -10.4,20.911 z"/>
  <path d="m 114.21929,57.5713 9e-4,2.2213 c 1.8602,1.4294 15.9931,6.7467 18.732,7.157 -0.8899,-7.7487 -4.1686,-10.5839 -6.8391,-15.1615 -1.9735,0.3109 -10.2221,4.1647 -11.8938,5.7832 z"/>
  <path d="m 38.671686,43.781 1.6615,13.9874 c 5.3043,0.5572 2.8131,1.9854 7.4177,-1.6758 1.8812,-1.4961 5.5987,-2.7739 4.5039,-6.1219 -0.4631,-1.4166 -4.1388,-4.5611 -5.3223,-5.6497 -3.1027,-2.8546 -3.6406,-1.4583 -8.2608,-0.54 z"/>
  <path d="m 107.68759,130.2658 c -0.0589,3.0076 1.5748,4.5318 4.9876,7.7221 1.5055,1.4072 1.5195,1.3764 4.14,0.5463 2.0149,-0.6383 3.115,-1.3742 4.8355,-1.8494 l -1.8721,-13.9902 c -2.7106,-0.1099 -4.4809,2.0887 -6.3994,3.461 -1.6263,1.163 -4.2492,2.9232 -5.6916,4.1102 z"/>
  <path d="m 64.753186,124.1478 -2.0193,-17.0205 c -1.8749,-0.6747 -11.7965,5.6706 -10.3469,9.5217 0.4573,1.2149 3.7996,4.7951 4.8538,6.2232 2.6707,3.6175 2.6167,2.2925 7.5124,1.2756 z"/>
  <path d="m 34.832086,98.6646 13.2532,12.9589 c -0.1512,-3.2544 -1.0829,-15.8159 -1.8183,-18.4425 -0.9483,-3.3866 -4.1448,-1.0496 -6.5111,-0.1097 -4.7469,1.8853 -4.1701,0.46 -4.9238,5.5933 z"/>
  <path d="m 11.182286,105.8837 c 1.6767,2.6978 9.9958,6.4565 14.6824,6.7315 1.066,-7.0727 5.2617,-15.4263 -0.7503,-13.7329 -0.6761,0.1905 -13.5479,6.663 -13.9321,7.0014 z"/>
  <path d="m 91.335886,63.7221 c 1.075,-3.079 5.5424,-13.0565 5.3653,-15.3991 -0.4586,-6.0651 -0.5743,-4.944 -4.486,-10.9748 -1.3067,-2.0144 -1.1475,-1.8858 -3.8889,-1.9779 0.3034,4.6916 1.864,25.6553 3.0096,28.3518 z"/>
  <path d="m 49.282386,89.7796 c 0.648,1.6763 4.6271,4.7786 6.1913,5.9761 1.8392,1.4075 5.3168,5.5374 7.0285,4.4952 1.2859,-2.3239 1.5044,-12.5656 1.111,-15.86 -3.0099,0.7422 -12.3011,3.7723 -14.3308,5.3887 z"/>
  <path d="m 66.830386,62.6683 1.4772,-25.8451 c -2.3995,-0.3395 -1.8577,-0.0465 -2.9449,1.8744 -11.4527,20.2311 -6.6963,11.1907 1.4677,23.9707 z"/>
  <path d="m 50.069286,111.9019 c 3.1807,-0.056 7.5363,-5.0668 10.2455,-6.4847 l -0.0249,-3.4774 c -1.6843,-0.9258 -10.5109,-9.2856 -12.2569,-9.9641 z"/>
  <path d="m 70.191986,37.2051 -0.7668,24.5246 12.5481,-25.2986 c -3.2126,0.3805 -3.677,1.1536 -5.9843,1.8189 -1.9171,0.5529 -3.3924,-0.5533 -5.797,-1.0449 z"/>
  <path d="m 70.891286,126.9433 c 1.6275,-1.5905 1.8153,-2.2503 3.0189,-3.6024 4.5184,-5.0757 3.0746,-5.0498 -2.9211,-10.8942 -1.897,-1.8491 -3.7304,-4.5651 -6.3689,-5.539 0.209,3.957 0.9027,7.7933 1.3959,11.6846 0.5812,4.5846 1.4268,7.2524 4.8752,8.351 z"/>
  <path d="m 94.331886,143.0435 c 2.184,-3.3107 8.416104,-9.379 7.726604,-11.6152 -1.3419,-2.0803 -7.981704,-5.1105 -10.518704,-4.8914 -0.5807,3.1073 -1.0009,6.467 -1.4531,9.7008 -0.4223,3.0211 0.2372,4.9858 4.2452,6.8058 z"/>
  <path d="m 45.462386,62.0138 c 2.1542,1.2411 16.9487,2.2159 20.4601,2.2883 l -6.4156,-7.5704 c -1.4825,-1.815 -0.895,-1.6577 -3.0372,-2.0931 -3.4282,-0.6967 -4.2783,0.3691 -6.4783,2.0204 -3.6016,2.7032 -4.8074,2.4864 -4.529,5.3548 z"/>
  <path d="m 132.58809,98.1094 c 0.7921,1.803 -0.6198,0.3898 2.0784,1.7642 1.1271,0.5741 1.9679,0.9341 2.9829,1.4582 1.8656,0.9634 3.9619,2.2501 5.9884,2.883 2.9535,-3.158 4.4877,-8.353 4.514,-13.9232 -2.4494,0.8182 -14.6529,6.0904 -15.5637,7.8178 z"/>
  <path d="m 102.94539,129.0446 -8.565104,-23.5841 c -0.8807,1.1494 -2.4487,13.9906 -2.1651,15.9526 0.534,3.6929 7.4576,6.4179 10.730204,7.6315 z"/>
  <path d="m 8.5970856,99.1343 c -0.1189,0.3969 -2.3773,5.7114 1.9950004,4.8104 l 15.2418,-7.5013 c 0.482,-4.3471 2.1613,-3.0505 -0.4897,-7.2018 -2.2351,-3.5001 -7.1535,-12.258 -9.3779,-14.3151 -2.968,7.516 -5.0021,16.3054 -7.3692004,24.2078 z"/>
  <path d="m 92.540886,65.9198 11.968204,-5.8996 1.1435,-4.7287 c -1.5944,-1.9453 -4.5113,-5.893 -6.440104,-6.2889 -1.1499,1.2105 -6.1425,14.6203 -6.6716,16.9172 z"/>
  <path d="m 46.977386,113.0276 -13.2329,-12.859 c 0.7918,4.6255 3.5166,10.6042 5.0594,15.0363 1.0488,3.013 1.3482,6.0974 3.8719,4.1979 2.0791,-1.5647 3.8336,-2.8899 4.3016,-6.3752 z"/>
  <path d="m 81.064586,118.656 c 1.786,1.3607 6.4838,3.6171 8.6559,3.7269 1.3724,-2.166 2.5835,-14.0213 2.0684,-17.3808 -0.96,0.2595 -10.616,11.4185 -10.7243,13.6539 z"/>
  <path d="m 110.75099,44.2437 c -2.0882,-1.0531 -1.5825,-0.0428 -3.7592,-1.6645 -1.4234,-1.0605 -1.5283,-1.3909 -3.4377,-2.2291 -2.8765,5.8608 -3.603204,5.3954 1.4119,11.4624 0.785,0.9497 3.2162,4.8405 4.6435,0.7015 0.3858,-1.1186 1.1052,-6.9411 1.1415,-8.2703 z"/>
  <path d="m 111.29459,54.3672 c 3.3656,1.205 2.3977,1.0979 6.2145,-0.7326 2.3838,-1.1435 4.0097,-2.1062 6.2303,-3.0228 -0.7263,-1.2639 -0.009,-0.2468 -0.8174,-1.1376 -2.1041,-2.3189 -6.744,-4.1811 -9.8266,-4.8981 -0.0748,0.1321 -0.1724,0.1864 -0.1996,0.4093 -0.0369,0.3002 -1.3113,3.9739 -1.6012,9.3818 z"/>
  <path d="m 88.083486,136.7989 c 0.7228,-2.5457 1.9476,-8.814 1.1099,-10.9183 -0.9499,-2.3854 -6.082,-4.5327 -8.7419,-5.0172 1.2495,5.5975 3.6993,12.1326 7.632,15.9355 z"/>
  <path d="m 54.081086,38.0789 c 0.1547,1.9526 0.9955,12.9094 4.2712,9.6777 l 6.6635,-11.2916 c -4.9873,0.016 -6.5826,0.589 -10.9347,1.6139 z"/>
  <path d="m 28.602586,49.0998 c 0.9941,2.2964 2.89,3.5256 4.5154,5.1517 1.6697,1.6704 2.7558,3.6605 5.2484,4.4458 0.4868,-2.3516 -1.1535,-10.4133 -1.618,-13.6582 -2.8222,0.0126 -6.0708,3.0609 -8.1458,4.0607 z"/>
  <path d="m 87.583186,68.6423 -16.6157,-1.8342 c 0.6596,1.909 1.7309,3.1897 2.69,4.6662 1.1583,1.783 1.745,2.8429 4.6324,2.9589 1.6453,0.0661 8.1544,-4.5228 9.2933,-5.7909 z"/>
  <path d="m 27.605386,113.1187 8.3701,0.1016 c -0.5339,-2.896 -3.3463,-11.729 -5.0669,-12.7105 -1.3609,1.665 -2.9411,10.0086 -3.3032,12.6089 z"/>
  <path d="m 65.786786,83.5057 -0.9615,15.1673 9.4422,-18.8779 z"/>
  <path d="m 43.241986,121.4369 c 3.6724,2.3653 7.9312,3.8135 13.4104,3.8804 -1.304,-2.1146 -2.1524,-3.0469 -3.6365,-4.8918 -2.9361,-3.6495 -0.9563,-2.3445 -5.6807,-3.4329 -1.2932,2.3173 -2.7022,2.5701 -4.0932,4.4443 z"/>
  <path d="m 123.35019,134.9383 c 2.7509,-1.2908 6.1471,-4.4198 7.0936,-7.646 -2.9825,-1.2425 -5.6316,-3.9471 -8.7043,-4.8511 z"/>
  <path d="m 135.86329,111.4497 c 2.5186,-0.9919 5.6381,-3.7502 6.584,-5.6475 l -10.8657,-5.5293 c 0.1895,2.9805 2.6941,9.2973 4.2817,11.1768 z"/>
  <path d="m 72.258786,128.3991 c 2.5343,2.0026 6.0347,3.3617 9.9475,3.7933 l -3.555,-10.9353 c -1.7251,0.8708 -5.3508,5.4342 -6.3925,7.142 z"/>
  <path d="m 66.242786,81.0472 c 1.7558,-0.4359 2.8419,-0.9927 4.2548,-1.687 1.9556,-0.9612 2.5687,-0.9996 2.9803,-3.1727 0.3695,-1.9512 -2.0529,-5.394 -3.4216,-6.7939 -1.0237,-1.0471 0.2369,-0.0463 -1.1669,-0.991 z"/>
  <path d="m 2.6997856,69.9151 9.6045004,-0.1098 c -0.2715,-1.9852 -3.1819004,-6.4445 -4.8760004,-7.7432 -1.2241,1.5608 -3.9752,5.239 -4.7285,7.853 z"/>
  <path d="m 99.212486,43.2581 c 1.709404,-1.1085 2.291004,-2.3113 2.830604,-4.0123 -2.108504,-1.8236 -5.444704,-2.8953 -8.590004,-3.3178 0.8748,1.9642 3.4447,6.6693 5.7594,7.3301 z"/>
  <path d="m 47.521686,42.0224 c 1.1194,2.4788 4.4809,5.1269 6.3349,6.0708 l -1.593,-8.7811 c -2.0378,0.4812 -3.384,1.3818 -4.7419,2.7103 z"/>
</svg>
