<svg xmlns="http://www.w3.org/2000/svg" height="100%" viewBox="0 0 52.916665 26.458334" version="1.1">
  <g transform="translate(0,-270.54165)">
    <g fill="#fff" transform="matrix(0.28330392,0,0,0.28288781,12.117707,245.55814)">
      <path d="M -30.682541,99.013416 -2.4789248,94.991009 33.37194,136.25575 -2.1982918,177.73097 -30.963174,173.61502 1.4850163,136.24406 Z"/>
      <path d="M 63.218879,101.95247 40.034765,129.60143 21.865988,107.7832 Z" />
       <path d="M 21.91276,164.7517 39.985156,143.14479 63.516602,170.7853 Z" />
      <path d="m 66.276161,120.22459 h 7.249684 v 32.41213 h -7.249684 z" />
      <path transform="scale(0.26458333)" d="m 409.94531,453.95117 v 26.16211 H 447.625 v 96.28125 H 474.5 v -96.28125 h 37.0918 v -26.16211 z" />
      <path transform="scale(0.26458333)" d="m 349,466.26953 a 50.749998,48.749996 0 0 0 -50.75,48.75 50.749998,48.749996 0 0 0 50.75,48.75 50.749998,48.749996 0 0 0 50.75,-48.75 50.749998,48.749996 0 0 0 -50.75,-48.75 z m 0,23 a 24,25.625001 0 0 1 24,25.625 24,25.625001 0 0 1 -24,25.625 24,25.625001 0 0 1 -24,-25.625 24,25.625001 0 0 1 24,-25.625 z" />
    </g>
  </g>
</svg>
